<?xml version="1.0" standalone="no"?>
<!DOCTYPE svg PUBLIC "-//W3C//DTD SVG 1.1//EN" "http://www.w3.org/Graphics/SVG/1.1/DTD/svg11.dtd" >
<svg xmlns="http://www.w3.org/2000/svg">
<metadata>
Created by FontPrep 20130207 at Sun May  8 16:17:18 2016
 By Corey Margulis
Copr.1993 Martin Majoor
</metadata>
<defs>
<font id="75d26880f9e4d73b286c49a276d10a7a" horiz-adv-x='1024' >
  <font-face 
    font-family="ScalaSans-Bold"
    font-weight="700"
    font-stretch="normal"
    units-per-em="2048"
    panose-1="0 0 0 0 0 0 0 0 0 0"
    ascent="1638"
    descent="-410"
    x-height="952"
    cap-height="1352"
    bbox="-293 -545 2456 1767"
    underline-thickness="167"
    underline-position="0"
    unicode-range="U+0020-FB02"
  />
<missing-glyph horiz-adv-x="1024" 
 />
    <glyph glyph-name=".notdef" horiz-adv-x="1024" 
 />
    <glyph glyph-name=".null" horiz-adv-x="0" 
 />
    <glyph glyph-name="nonmarkingreturn" horiz-adv-x="681" 
 />
    <glyph glyph-name="space" unicode=" " horiz-adv-x="512" 
 />
    <glyph glyph-name="exclam" unicode="!" horiz-adv-x="540" 
d="M442 123q0 -68 -47 -116t-115 -48t-114 48q-47 48 -47 116t47 116t115 48q69 0 115 -48t46 -116zM410 1507l-13 -1108h-233l-12 1108h258z" />
    <glyph glyph-name="quotedbl" unicode="&#x22;" horiz-adv-x="843" 
d="M342 887h-170v465h170v-465zM672 887h-170v465h170v-465z" />
    <glyph glyph-name="numbersign" unicode="#" 
d="M680 780h-199l-35 -192h195zM1169 987l-45 -207h-223l-35 -192h226l-37 -199h-228l-73 -389h-222l72 389h-198l-74 -389h-221l75 389h-229l37 199h231l39 192h-233l45 207h233l70 361h219l-70 -361h197l68 361h223l-68 -361h221z" />
    <glyph glyph-name="dollar" unicode="$" horiz-adv-x="1112" 
d="M786 330q0 90 -145 172v-309q65 8 105 45t40 92zM369 1049q-1 -39 27 -70t102 -78v270q-129 -33 -129 -122zM1040 360q0 -110 -57 -200t-154 -135q-57 -31 -188 -52v-114h-143v114q-117 11 -194 31t-218 86l104 207q100 -57 156 -75t152 -29v399q-10 8 -26 18t-26 16
t-53 32t-104 69q-174 123 -174 301q0 152 99 243t284 107v115h143v-115q99 -6 171 -18t187 -70l-114 -196q-84 43 -128 56t-116 21v-360q35 -23 112 -73t142 -101q145 -115 145 -277z" />
    <glyph glyph-name="percent" unicode="%" horiz-adv-x="1740" 
d="M1112 332q0 -84 58 -142t142 -59t143 59q58 60 58 143t-58 141t-142 58q-85 0 -143 -58t-58 -142zM629 1014q-1 84 -59 142t-142 58t-142 -58t-58 -142t58 -142t142 -59q84 1 142 59t59 142zM1671 334q0 -148 -105 -254t-254 -106t-253 104q-105 106 -105 255t104 253
t254 104q148 0 254 -104t105 -252zM1536 1403l-1157 -1493h-195l1159 1493h193zM786 1014q0 -150 -104 -254t-252 -104t-254 104t-106 254t105 255t254 105t253 -105t104 -255z" />
    <glyph glyph-name="ampersand" unicode="&#x26;" horiz-adv-x="1435" 
d="M307 387q0 -82 51 -139q50 -58 108 -58q124 -1 247 119l-258 309l-64 -65q-84 -84 -84 -166zM432 -27q-170 1 -282 101q-113 100 -113 268q0 201 254 395l61 47q-76 94 -96 121q-100 127 -100 250q0 166 118 263q118 98 314 98t305 -79t109 -212t-148 -234l-117 -78
l-102 129l78 68q41 31 41 85t-48 93t-123 39t-125 -46t-50 -130t112 -223l361 -451q43 67 63 127t27 168h256q-13 -186 -55 -271t-150 -192q53 -59 79 -79q27 -20 57 -19q30 0 58 28t62 95l174 -127q-118 -232 -298 -232q-96 0 -156 34t-132 120q-96 -70 -137 -90
q-127 -66 -297 -66z" />
    <glyph glyph-name="quotesingle" unicode="'" horiz-adv-x="514" 
d="M342 887h-170v465h170v-465z" />
    <glyph glyph-name="parenleft" unicode="(" horiz-adv-x="632" 
d="M403 416q0 -291 84 -606q49 -177 121 -324h-219q-68 119 -119 285q-104 334 -104 648t104 642q47 152 119 291h219q-205 -454 -205 -936z" />
    <glyph glyph-name="parenright" unicode=")" horiz-adv-x="632" 
d="M240 422q0 303 -84 606q-49 176 -121 324h219q70 -123 121 -287q102 -332 102 -645t-102 -643q-51 -154 -121 -291h-219q205 454 205 936z" />
    <glyph glyph-name="asterisk" unicode="*" horiz-adv-x="1024" 
d="M498 762l-162 -256l-178 131l190 233zM870 637l-180 -129l-162 254l150 108zM393 1081l-57 -176l-293 78l68 209zM981 981l-293 -76l-57 176l282 111zM625 1403l-19 -303h-184l-19 303h222z" />
    <glyph glyph-name="plus" unicode="+" 
d="M1049 401h-402v-401h-168v401h-401v168h401v402h168v-402h402v-168z" />
    <glyph glyph-name="comma" unicode="," horiz-adv-x="514" 
d="M261 287q157 0 157 -170q0 -94 -46 -217t-124 -238h-148q85 161 97 305l-113 275q98 45 177 45z" />
    <glyph glyph-name="hyphen" unicode="-" horiz-adv-x="565" 
d="M496 356h-426v228h426v-228z" />
    <glyph glyph-name="period" unicode="." horiz-adv-x="514" 
d="M420 138q0 -68 -47 -116t-115 -48t-116 48t-48 116t48 116q48 47 116 47t115 -47t47 -116z" />
    <glyph glyph-name="slash" unicode="/" horiz-adv-x="837" 
d="M797 1352l-514 -1854h-246l516 1854h244z" />
    <glyph glyph-name="zero" unicode="0" horiz-adv-x="1167" 
d="M883 494q0 127 -87 217t-212 90t-212 -90t-87 -217q0 -126 87 -218t212 -92t212 92t87 218zM1130 494q0 -219 -160 -375t-386 -156q-227 0 -387 156t-160 375q0 218 160 374t387 156q226 0 386 -156t160 -374z" />
    <glyph glyph-name="one" unicode="1" horiz-adv-x="798" 
d="M557 0h-244v799h-231v205h475v-1004z" />
    <glyph glyph-name="two" unicode="2" horiz-adv-x="1011" 
d="M500 813q-123 0 -324 -170l-129 156q119 104 199 143q144 78 290 78t237 -84t91 -206t-51 -196q-51 -75 -201 -186l-75 -65q-53 -43 -144 -90h555v-193h-889v154l412 335q80 63 112 109q31 46 31 97q0 50 -32 84q-33 34 -82 34z" />
    <glyph glyph-name="three" unicode="3" horiz-adv-x="880" 
d="M405 1022q160 0 243 -84t83 -229t-88 -230q-49 -45 -162 -92q143 -14 227 -104q83 -91 83 -230q0 -223 -169 -358t-448 -135q-76 0 -131 2v194h80q170 2 249 32t128 102t49 149q0 193 -236 192h-141v193q168 47 239 106t70 154q0 57 -30 92q-31 35 -80 35
q-76 0 -238 -102l-102 165q214 148 374 148z" />
    <glyph glyph-name="four" unicode="4" horiz-adv-x="1077" 
d="M606 193v450l-321 -450h321zM1044 0h-204v-438h-234v438h-592v154l645 864h181v-825h204v-193z" />
    <glyph glyph-name="five" unicode="5" horiz-adv-x="845" 
d="M535 41q0 229 -281 256l-143 12v695h632v-205h-399v-297l90 -13q164 -23 256 -137t92 -289q0 -262 -194 -401q-72 -51 -178 -82t-324 -31v220l84 2q106 4 154 13t94 36q117 70 117 221z" />
    <glyph glyph-name="six" unicode="6" horiz-adv-x="1114" 
d="M580 166q106 0 170 78t63 188q0 110 -54 170t-145 62q-127 0 -299 -97q11 -127 29 -185t57 -114q73 -102 179 -102zM1063 440q0 -202 -137 -344q-138 -142 -356 -141q-218 0 -353 170t-135 450q0 360 211 613q98 119 217 171t289 52q45 0 159 -8v-205q-76 8 -171 8
q-194 0 -304 -119q-63 -68 -91 -129t-52 -186q177 104 346 103q170 -1 274 -117t103 -318z" />
    <glyph glyph-name="seven" unicode="7" horiz-adv-x="952" 
d="M47 799v205h838v-166l-285 -697q-26 -67 -106 -231t-203 -348l-205 129q33 49 86 131q121 201 211 422l217 555h-553z" />
    <glyph glyph-name="eight" unicode="8" horiz-adv-x="1021" 
d="M291 320q1 -72 67 -122t152 -50t150 52q64 54 63 131q0 77 -123 187l-92 86l-74 -69l-63 -64q-80 -80 -80 -151zM668 1114q0 144 -158 141q-70 0 -113 -40q-43 -41 -43 -109t92 -154l64 -61l63 61q95 90 95 162zM975 314q0 -152 -134 -248t-340 -96t-330 93
q-124 94 -124 244q0 201 197 348l123 93l-111 79q-55 43 -82 72q-72 78 -72 210t119 225t299 93q180 1 290 -81t110 -211q0 -174 -156 -291l-111 -82l123 -107q29 -25 60 -53t34 -31q105 -105 105 -257z" />
    <glyph glyph-name="nine" unicode="9" horiz-adv-x="1114" 
d="M553 813q-105 0 -169 -79t-64 -188q0 -110 54 -170q56 -60 146 -61q37 0 121 22t178 77q-15 125 -31 183t-57 116q-72 100 -178 100zM70 540q0 200 137 342t356 142t353 -169t135 -452q0 -358 -209 -612q-98 -119 -217 -171t-289 -52q-47 0 -162 8v207q60 -8 164 -8
q104 -1 178 25t136 94t90 128q28 62 51 185q-175 -101 -346 -101t-274 117t-103 317z" />
    <glyph glyph-name="colon" unicode=":" horiz-adv-x="514" 
d="M420 138q0 -68 -47 -116t-115 -48t-116 48t-48 116t48 116q48 47 116 47t115 -47t47 -116zM420 815q0 -68 -47 -116t-115 -48t-116 48t-48 116t48 116t116 48t115 -48t47 -116z" />
    <glyph glyph-name="semicolon" unicode=";" horiz-adv-x="514" 
d="M261 287q157 0 157 -170q0 -94 -46 -217t-124 -238h-148q85 161 97 305l-113 275q98 45 177 45zM418 815q0 -68 -47 -116t-115 -48t-115 48t-47 116t47 116t115 48t115 -48t47 -116z" />
    <glyph glyph-name="less" unicode="&#x3c;" 
d="M1047 0l-967 430v111l967 430v-164l-728 -322l728 -321v-164z" />
    <glyph glyph-name="equal" unicode="=" 
d="M1075 223h-1024v168h1024v-168zM1075 557h-1024v168h1024v-168z" />
    <glyph glyph-name="greater" unicode="&#x3e;" 
d="M1047 430l-967 -430v164l727 321l-727 322v164l967 -430v-111z" />
    <glyph glyph-name="question" unicode="?" horiz-adv-x="856" 
d="M463 123q0 -68 -48 -116t-115 -48t-115 48t-48 116t48 116t115 48t115 -48t48 -116zM786 912q0 -159 -104 -246q-70 -55 -201 -56h-53v-194h-244v395h334q14 74 14 123q0 150 -107 242q-108 92 -304 112l51 232q120 -14 186 -32t134 -61q138 -82 216 -219t78 -296z" />
    <glyph glyph-name="at" unicode="@" horiz-adv-x="2048" 
d="M1051 786q-94 0 -165 -127t-71 -297q0 -121 51 -120q23 0 62 28q75 55 142 183t79 206l22 109q-53 18 -120 18zM1024 -362q-215 0 -406 115q-190 117 -304 311t-113 413q0 342 250 593q251 251 587 251q336 1 580 -231t244 -549q0 -244 -144 -403t-364 -158
q-125 0 -183 55q-57 55 -57 176v18l10 50q-49 -87 -88 -131q-38 -44 -114 -90t-150 -46t-128 92t-54 232q0 272 147 458t361 187q102 0 313 -61l-113 -615q-10 -45 -10 -78q0 -88 101 -88q123 0 205 111t81 274q0 250 -184 428t-448 178t-457 -194t-193 -458
q1 -265 191 -456t452 -192q145 0 287 68l68 -177q-51 -25 -70 -28q-141 -55 -297 -55z" />
    <glyph glyph-name="A" unicode="A" horiz-adv-x="1218" 
d="M768 553l-158 489l-155 -489h313zM1214 0h-270l-106 334h-453l-111 -334h-270l490 1352h231z" />
    <glyph glyph-name="B" unicode="B" horiz-adv-x="1210" 
d="M858 378q0 200 -248 202h-168v-373h168q109 0 156 24q92 43 92 147zM819 975q0 82 -55 127t-154 45h-168v-348h154q223 0 223 176zM1141 352q0 -166 -108 -259t-310 -93h-551v1352h490q134 0 208 -20t129 -70q107 -94 107 -230t-78 -225q-45 -51 -93 -73t-128 -25
q154 -3 244 -97t90 -260z" />
    <glyph glyph-name="C" unicode="C" horiz-adv-x="1239" 
d="M336 683q0 -206 133 -337t354 -131q133 0 297 64l47 -218q-104 -47 -194 -67t-205 -21q-303 0 -489 168q-107 95 -167 239t-61 302q0 303 207 506q100 100 221 144t289 44q252 0 424 -129l-98 -205q-131 94 -319 94q-187 0 -313 -123q-126 -124 -126 -330z" />
    <glyph glyph-name="D" unicode="D" horiz-adv-x="1456" 
d="M1126 678q0 115 -42 214t-113 152q-109 80 -324 80h-205v-897h205q229 0 354 117t125 334zM1405 678q0 -282 -186 -480t-547 -198h-500v1352h502q192 0 320 -46t229 -153q182 -194 182 -475z" />
    <glyph glyph-name="E" unicode="E" horiz-adv-x="1103" 
d="M1034 0h-850v1352h824v-219h-566v-334h463v-219h-463v-361h592v-219z" />
    <glyph glyph-name="F" unicode="F" horiz-adv-x="1069" 
d="M1022 1133h-580v-349h476v-217h-476v-567h-258v1352h838v-219z" />
    <glyph glyph-name="G" unicode="G" horiz-adv-x="1449" 
d="M823 -27q-336 0 -548 196t-212 508t224 517q104 96 229 138t289 42q165 0 271 -26t222 -76l-61 -215q-49 18 -111 39q-145 49 -278 49q-226 0 -370 -127t-144 -331t154 -344t378 -140q74 0 176 28v373h258v-553q-24 -6 -72 -17t-65 -16q-186 -45 -340 -45z" />
    <glyph glyph-name="H" unicode="H" horiz-adv-x="1579" 
d="M1395 0h-258v580h-695v-580h-258v1352h258v-541h695v541h258v-1352z" />
    <glyph glyph-name="I" unicode="I" horiz-adv-x="614" 
d="M436 0h-258v1352h258v-1352z" />
    <glyph glyph-name="J" unicode="J" horiz-adv-x="614" 
d="M180 1352h256v-1391q-45 -145 -103 -241t-140 -197l-193 129q70 109 126 222t54 319v1159z" />
    <glyph glyph-name="K" unicode="K" horiz-adv-x="1169" 
d="M430 0h-258v1352h258v-631l424 631h297l-465 -658l490 -694h-295l-451 643v-643z" />
    <glyph glyph-name="L" unicode="L" horiz-adv-x="1013" 
d="M995 0h-811v1352h258v-1133h553v-219z" />
    <glyph glyph-name="M" unicode="M" horiz-adv-x="1798" 
d="M1602 0h-246v991q-10 -74 -51 -192l-310 -799h-231l-283 784q-31 98 -51 215v-999h-233v1352h309l360 -965q20 -47 27 -104q8 68 25 104l374 965h310v-1352z" />
    <glyph glyph-name="N" unicode="N" horiz-adv-x="1554" 
d="M1356 -12h-271l-579 874q-44 66 -64 129v-991h-245v1352h297l567 -889l4 -4q2 -7 5 -13t7 -16t10 -22l13 -35l12 -25v1004h244v-1364z" />
    <glyph glyph-name="O" unicode="O" horiz-adv-x="1562" 
d="M1225 676q0 205 -126 341t-318 136q-191 0 -317 -136t-126 -342t126 -341t317 -135t318 136q126 136 126 341zM1499 678q0 -311 -201 -508t-516 -197t-516 197t-202 508t198 505q199 193 519 193t519 -194t199 -504z" />
    <glyph glyph-name="P" unicode="P" horiz-adv-x="1138" 
d="M565 678q149 0 219 58t70 175t-56 169t-175 53h-181v-451l33 -2h33q29 -2 57 -2zM1120 938q0 -234 -145 -358t-408 -123q-57 0 -125 6v-463h-258v1352h463q131 0 213 -26t146 -85q114 -115 114 -303z" />
    <glyph glyph-name="Q" unicode="Q" horiz-adv-x="1562" 
d="M1225 676q0 205 -126 341q-127 136 -317 136t-317 -136t-127 -341t127 -341t317 -136t317 136q126 136 126 341zM1499 685q0 -304 -190 -507q-68 -72 -124 -106t-167 -72q50 -98 172 -190q53 -37 162 -93l-219 -194q-333 255 -463 465q-106 6 -168 26q-195 66 -317 249
t-122 413q0 313 199 507q199 193 519 193t519 -194t199 -497z" />
    <glyph glyph-name="R" unicode="R" horiz-adv-x="1196" 
d="M846 950q0 98 -54 140t-182 43h-168v-373h168q123 0 180 46q56 46 56 144zM442 541v-541h-258v1352h451q147 0 227 -22t139 -79q111 -101 111 -275q0 -251 -157 -347q-44 -27 -128 -49l336 -580h-282l-310 541h-129z" />
    <glyph glyph-name="S" unicode="S" horiz-adv-x="1093" 
d="M604 1126q-112 0 -167 -33q-54 -35 -54 -85t28 -80t101 -70q314 -168 406 -260t92 -257t-125 -266t-350 -102q-43 -1 -119 9t-131 28t-242 107l109 237q130 -70 214 -102t174 -31q90 0 142 37q53 37 53 98q0 80 -119 146l-208 119q-178 102 -246 183t-68 188
q0 182 154 292q74 50 148 70t200 20q128 0 230 -30t208 -82l-102 -232q-216 96 -328 96z" />
    <glyph glyph-name="T" unicode="T" horiz-adv-x="1103" 
d="M1085 1133h-405v-1133h-258v1133h-406v219h1069v-219z" />
    <glyph glyph-name="U" unicode="U" horiz-adv-x="1433" 
d="M1284 528q0 -186 -40 -284t-146 -172q-143 -98 -381 -98t-383 98q-104 72 -145 171q-40 99 -39 285v824h256v-838q0 -301 319 -301q147 0 224 78t77 223v838h258v-824z" />
    <glyph glyph-name="V" unicode="V" horiz-adv-x="1193" 
d="M1188 1352l-502 -1391h-180l-502 1391h283l309 -914l4 -18l4 -23l6 -24l-2 14q0 24 15 51l295 914h270z" />
    <glyph glyph-name="W" unicode="W" horiz-adv-x="1769" 
d="M1767 1352l-489 -1379h-180l-205 580l-207 -580h-166l-516 1379h270l349 -1018l168 450l-220 568h232l102 -271l90 271h219l-206 -541l194 -463l322 1004h243z" />
    <glyph glyph-name="X" unicode="X" horiz-adv-x="1171" 
d="M1163 0h-297l-282 477l-297 -477h-283l438 682l-411 670h295l258 -451l270 451h297l-414 -643z" />
    <glyph glyph-name="Y" unicode="Y" 
d="M674 0h-258v580l-412 772h283l270 -529l285 529h282l-450 -772v-580z" />
    <glyph glyph-name="Z" unicode="Z" horiz-adv-x="1218" 
d="M1155 0h-1081v168l733 965h-721v219h1069v-168l-721 -965h721v-219z" />
    <glyph glyph-name="bracketleft" unicode="[" horiz-adv-x="512" 
d="M502 -502h-412v1854h412v-181h-168v-1493h168v-180z" />
    <glyph glyph-name="backslash" unicode="\" horiz-adv-x="837" 
d="M809 -502h-244l-528 1854h246z" />
    <glyph glyph-name="bracketright" unicode="]" horiz-adv-x="512" 
d="M424 -502h-412v180h168v1493h-168v181h412v-1854z" />
    <glyph glyph-name="asciicircum" unicode="^" horiz-adv-x="1069" 
d="M1016 0h-168l-322 721l-323 -721h-154l426 967h115z" />
    <glyph glyph-name="underscore" unicode="_" horiz-adv-x="1024" 
d="M1024 -168h-1024v168h1024v-168z" />
    <glyph glyph-name="grave" unicode="`" horiz-adv-x="784" 
d="M649 1059h-164l-231 336h203z" />
    <glyph glyph-name="a" unicode="a" horiz-adv-x="974" 
d="M326 264q0 -98 110 -98q59 0 152 72v186l-244 -80q-18 -47 -18 -80zM819 -12q-92 0 -132 20t-73 84q-129 -117 -258 -117q-128 0 -206 73t-78 185q0 47 20 105t71 96q50 38 154 70l271 78v80q0 150 -117 149q-55 0 -94 -26t-39 -60q0 -6 6 -25l-233 -51q-12 35 -13 66
q0 127 106 195t288 69q182 0 262 -73t80 -230v-397q0 -63 13 -83t62 -24l-39 -184h-51z" />
    <glyph glyph-name="b" unicode="b" horiz-adv-x="1060" 
d="M758 498q0 140 -64 216q-64 77 -172 77q-66 0 -149 -43v-568q70 -27 112 -26q115 0 194 102t79 242zM129 1493h244v-565q102 51 237 51q184 0 294 -124t110 -335q0 -254 -150 -401t-407 -148q-162 0 -328 56v1466z" />
    <glyph glyph-name="c" unicode="c" horiz-adv-x="909" 
d="M49 470q0 228 139 370t367 141q179 0 338 -94l-117 -187q-96 74 -204 74t-187 -86q-78 -86 -78 -216t70 -210t178 -80t248 82l90 -198q-53 -25 -80 -37q-133 -55 -278 -56q-221 1 -353 135t-133 362z" />
    <glyph glyph-name="d" unicode="d" horiz-adv-x="1087" 
d="M715 569q-1 82 -13 122t-57 65t-102 24q-102 0 -169 -89t-67 -221t54 -214t143 -82q119 0 211 143v252zM504 981q113 0 211 -68v580h243v-1493h-243v129q-43 -70 -97 -102q-84 -53 -178 -54q-170 -1 -280 135t-111 349q0 213 133 369t322 155z" />
    <glyph glyph-name="e" unicode="e" horiz-adv-x="958" 
d="M510 795q-84 1 -137 -53t-68 -150h373q-4 109 -44 156t-124 47zM47 454q0 222 136 374q137 152 327 151q190 0 302 -122t112 -314v-105h-631q6 -104 35 -154t86 -81q58 -31 122 -31t126 18t172 89l90 -187q-209 -119 -418 -119t-334 129q-125 130 -125 352z" />
    <glyph glyph-name="f" unicode="f" horiz-adv-x="589" 
d="M412 1008v-56h200v-180h-200v-772h-244v772h-156v156l156 24v123q0 211 108 328q109 117 306 117q149 0 319 -78l-106 -185q-111 59 -201 59t-135 -63q-29 -41 -38 -90t-9 -155z" />
    <glyph glyph-name="g" unicode="g" horiz-adv-x="1038" 
d="M760 -117q0 59 -121 60h-297q-16 -29 -40 -68t-26 -79q0 -40 58 -70t162 -31q102 0 192 74q72 55 72 114zM649 625q0 74 -47 126q-48 52 -112 52t-110 -53t-46 -126t46 -124t112 -51t112 51t45 125zM1024 768h-168q43 -61 43 -141q0 -162 -115 -262t-303 -101
q-39 0 -69 6q-94 -70 -95 -102q0 -27 64 -27h334q274 0 274 -229q-1 -178 -155 -294t-394 -116q-176 0 -284 67t-107 171q0 104 152 233q-72 27 -103 57q-30 30 -30 72t27 78q28 37 98 82q6 4 25 18t34 25q-61 47 -84 74q-84 100 -84 233q0 170 110 268t298 99q84 0 198 -39
h141l193 12v-184z" />
    <glyph glyph-name="h" unicode="h" horiz-adv-x="1116" 
d="M979 0h-246v612q0 90 -17 126t-63 36q-76 0 -229 -166l-33 -35v-573h-246v1493h246v-698q86 94 163 135t167 41q258 0 258 -271v-700z" />
    <glyph glyph-name="i" unicode="i" horiz-adv-x="505" 
d="M375 0h-244v952h244v-952zM391 1294q0 -70 -40 -118t-97 -48t-98 48t-41 118t41 118t98 48t97 -48t40 -118z" />
    <glyph glyph-name="j" unicode="j" horiz-adv-x="501" 
d="M129 68v884h244v-1071q-49 -125 -97 -202t-122 -177l-181 127q68 81 112 181t44 258zM387 1294q0 -70 -40 -118t-97 -48t-97 48t-40 118t40 118t97 48t97 -48t40 -118z" />
    <glyph glyph-name="k" unicode="k" horiz-adv-x="956" 
d="M373 0h-244v1493h244v-952l297 411h274l-342 -438l346 -514h-278l-297 489v-489z" />
    <glyph glyph-name="l" unicode="l" horiz-adv-x="489" 
d="M367 0h-244v1493h244v-1493z" />
    <glyph glyph-name="m" unicode="m" horiz-adv-x="1703" 
d="M1243 774q-85 0 -264 -203v-571h-246v612q0 90 -17 126t-63 36q-76 0 -229 -166l-33 -35v-573h-246v952h246v-157q86 94 163 135t167 41q215 0 250 -187q156 186 338 187q258 0 258 -271v-700h-246v612q0 90 -17 126t-61 36z" />
    <glyph glyph-name="n" unicode="n" horiz-adv-x="1116" 
d="M979 0h-246v612q0 90 -17 126t-63 36q-76 0 -229 -166l-33 -35v-573h-246v952h246v-157q86 94 163 135t167 41q258 0 258 -271v-700z" />
    <glyph glyph-name="o" unicode="o" horiz-adv-x="1056" 
d="M754 476q0 126 -67 217t-159 91t-158 -91t-67 -217q0 -126 67 -217q66 -91 158 -91t159 91t67 217zM528 979q204 -1 342 -145t138 -358t-138 -358t-342 -144q-205 0 -342 144t-137 358t137 358t342 145z" />
    <glyph glyph-name="p" unicode="p" horiz-adv-x="1101" 
d="M778 485q0 131 -55 213t-141 82q-123 0 -211 -149v-318q0 -51 11 -75t55 -46t108 -22q98 0 166 92q67 92 67 223zM571 -29q-122 0 -200 68v-516h-246v1429h246v-129q59 78 117 117t151 39q171 0 283 -134t112 -350t-134 -370t-329 -154z" />
    <glyph glyph-name="q" unicode="q" horiz-adv-x="1052" 
d="M590 803q-115 1 -192 -99q-76 -100 -76 -238t66 -215t179 -77q44 0 140 37v561q-53 31 -117 31zM621 983q185 0 331 -57v-1403h-245v489q-124 -36 -220 -37q-184 1 -303 133t-118 336q0 244 151 392q152 147 404 147z" />
    <glyph glyph-name="r" unicode="r" horiz-adv-x="690" 
d="M369 0h-244v952h211l10 -209q70 123 120 173t116 50t123 -67l-78 -237q-37 29 -74 28q-59 0 -122 -76t-62 -178v-436z" />
    <glyph glyph-name="s" unicode="s" horiz-adv-x="915" 
d="M764 688q-162 107 -259 107t-139 -25q-42 -26 -42 -62t26 -59t92 -45q211 -74 287 -131q45 -31 72 -89t26 -122q0 -131 -104 -210t-279 -79t-389 107l78 199q193 -119 311 -119q150 0 150 82q0 63 -96 100l-164 64q-246 92 -246 280q0 133 106 216t292 83q185 0 356 -98z
" />
    <glyph glyph-name="t" unicode="t" horiz-adv-x="632" 
d="M147 772h-141v156l141 24v285h232v-285h207v-180h-207v-424q0 -80 10 -108t46 -29q36 0 124 59l78 -178q-177 -118 -303 -119q-186 0 -187 207v592z" />
    <glyph glyph-name="u" unicode="u" horiz-adv-x="1116" 
d="M971 0h-246v160q-86 -94 -163 -135t-167 -41q-258 0 -258 268v700h246v-612q0 -88 17 -125t61 -37q74 0 231 166l33 35v573h246v-952z" />
    <glyph glyph-name="v" unicode="v" horiz-adv-x="950" 
d="M942 952l-367 -952h-243l-320 952h256l193 -630l6 -41l6 41l213 630h256z" />
    <glyph glyph-name="w" unicode="w" horiz-adv-x="1435" 
d="M1417 952l-303 -952h-244l-155 551l-156 -551h-246l-303 952h258l176 -671l2 -27l3 27l157 561l-28 110h245l164 -669v-29l2 29l185 669h243z" />
    <glyph glyph-name="x" unicode="x" horiz-adv-x="933" 
d="M924 952l-328 -467l317 -485h-266l-188 303l-199 -303h-252l328 467l-326 485h271l188 -299l201 299h254z" />
    <glyph glyph-name="y" unicode="y" horiz-adv-x="886" 
d="M877 952l-320 -901q-61 -174 -154 -325q-63 -111 -167 -240l-201 131q119 125 176 219q80 123 145 309l-350 807h266l168 -424l25 -114l27 114l143 424h242z" />
    <glyph glyph-name="z" unicode="z" horiz-adv-x="882" 
d="M827 0h-772v180l463 580h-463v192h772v-153l-489 -606h489v-193z" />
    <glyph glyph-name="braceleft" unicode="{" horiz-adv-x="837" 
d="M590 -524q-266 0 -266 274v430q0 112 -41 178t-113 66h-78v168h78q154 0 154 231v428q0 272 266 273h168l4 -160h-78q-154 0 -154 -205l-2 -385q0 -121 -41 -188q-23 -39 -49 -52t-100 -22q57 -6 84 -16q106 -43 106 -246l2 -379q0 -205 154 -205h78l-4 -190h-168z" />
    <glyph glyph-name="bar" unicode="|" horiz-adv-x="512" 
d="M369 -492h-228v1983h228v-1983z" />
    <glyph glyph-name="braceright" unicode="}" horiz-adv-x="837" 
d="M762 408h-78q-154 0 -154 -232v-426q0 -274 -268 -274h-168l-2 159h78q154 0 154 207v385q0 119 43 189q23 37 48 50q26 13 99 23q-55 6 -82 17q-109 43 -108 244v380q0 205 -154 205h-78l2 189h168q268 0 268 -273v-430q0 -113 41 -179t113 -67h78v-167z" />
    <glyph glyph-name="asciitilde" unicode="~" horiz-adv-x="1114" 
d="M762 295q-62 0 -116 15q-54 14 -143 58t-155 44q-129 0 -256 -99l-84 142q163 135 324 135q76 0 166 -41l102 -45q86 -37 148 -37t121 20q58 20 141 78l92 -145q-174 -125 -340 -125z" />
    <glyph glyph-name="nbspace" unicode="&#xa0;" horiz-adv-x="1024" 
 />
    <glyph glyph-name="exclamdown" unicode="&#xa1;" horiz-adv-x="540" 
d="M410 -457h-258l12 1108h233zM119 927q0 69 47 115t115 48q69 0 115 -47t46 -116t-47 -116t-115 -47t-114 47q-47 47 -47 116z" />
    <glyph glyph-name="cent" unicode="&#xa2;" horiz-adv-x="909" 
d="M537 770q-101 -16 -165 -99t-65 -202q0 -172 123 -254zM49 467q0 240 141 377t388 137l26 145h129l-28 -159q98 -25 188 -80l-117 -187q-47 37 -112 64l-111 -582h16q94 0 234 82l90 -198q-53 -25 -80 -37q-133 -55 -270 -56h-31l-33 -166h-127l35 185q-164 47 -251 170
t-87 305z" />
    <glyph glyph-name="sterling" unicode="&#xa3;" horiz-adv-x="1179" 
d="M1048 1303q-66 0 -108 -67q-41 -67 -109 -296l-167 -567h335l-59 -180h-336l-57 -232q-23 -88 -82 -192q45 4 50 4t56 -5t72 -12l178 -45q35 -6 58 -6q74 0 73 80q0 23 -6 49l-12 49l174 39q33 -86 33 -149q0 -279 -332 -279q-88 0 -158 19l-141 32q-58 17 -146 17
t-153 -15l-145 -34l-76 -15v193q108 33 146 53t86 70t89 198l49 181h-219l56 155l211 25l196 696q41 143 79 217q109 213 378 213q90 0 172 -36t168 -175l-184 -117q-47 86 -75 109t-94 23z" />
    <glyph glyph-name="currency" unicode="&#xa4;" horiz-adv-x="1167" 
d="M592 1286q-180 0 -180 -282v-52h336v123q-1 80 24 164q-88 47 -180 47zM582 1489q149 0 286 -70q39 31 45 35q98 66 249 66t317 -78l-105 -185q-236 123 -336 -4q-27 -39 -36 -88t-9 -157v-56h201v-180h-201v-772h-245v772h-336v-772h-244v772h-156v156l156 24v90
q0 211 108 329q109 118 306 118z" />
    <glyph glyph-name="yen" unicode="&#xa5;" 
d="M973 559h-299v-141h299v-137h-299v-281h-258v281h-297v137h297v141h-297v131l239 -2l-354 664h283l270 -529l285 529h282l-387 -664l236 2v-131z" />
    <glyph glyph-name="section" unicode="&#xa7;" horiz-adv-x="1062" 
d="M915 -50q-1 -230 -111 -363q-110 -132 -317 -132q-145 0 -224 32t-177 138l147 105q43 -63 89 -88t122 -25q229 0 230 352q0 191 -75 585t-75 507q0 35 2 61l131 29q-1 -85 15 -153t76 -250t113 -376q54 -192 54 -422zM387 973q0 -177 75 -573t75 -521q0 -35 -2 -63
l-129 -23q-2 84 -20 161t-75 252t-96 316q-68 242 -68 472t111 363q111 132 317 132q145 0 223 -32t177 -138l-146 -107q-43 64 -90 90t-123 25q-229 0 -229 -354z" />
    <glyph glyph-name="dieresis" unicode="&#xa8;" horiz-adv-x="851" 
d="M369 1161q0 -49 -34 -83t-83 -34t-83 34t-34 83t34 83t83 34t83 -34t34 -83zM698 1161q0 -49 -34 -83t-83 -34q-48 0 -83 34t-35 83t35 83t83 34q49 0 83 -34t34 -83z" />
    <glyph glyph-name="copyright" unicode="&#xa9;" horiz-adv-x="2066" 
d="M561 490q0 220 139 360t363 139q78 1 154 -21t174 -85l-103 -162q-122 63 -230 63t-180 -78t-71 -216q0 -138 71 -218t195 -79q59 0 97 12t126 59l101 -162q-153 -99 -357 -99q-204 -1 -342 133q-137 134 -137 354zM1681 498q0 268 -190 458q-191 190 -459 190t-458 -190
t-189 -458q0 -268 189 -458q190 -190 458 -192q268 0 459 191q190 191 190 459zM1874 498q0 -348 -247 -595t-595 -247t-594 247t-246 594t246 594t594 247t595 -246t247 -594z" />
    <glyph glyph-name="ordfeminine" unicode="&#xaa;" horiz-adv-x="1665" 
d="M585 1286q-173 0 -173 -282v-52h336v123q-1 88 24 164q-102 47 -187 47zM582 1489q149 0 286 -70q51 41 74 54q88 47 198 47t188 -22q77 -22 206 -107l-117 -193q-74 68 -124 92t-109 25q-98 -1 -144 -61t-47 -246v-56h543v-952h-246v772h-297v-772h-245v772h-336v-772
h-244v772h-156v156l156 24v90q0 211 108 329q109 118 306 118z" />
    <glyph glyph-name="guillemotleft" unicode="&#xab;" horiz-adv-x="1146" 
d="M553 63l-502 400l502 399v-244l-205 -155l205 -154v-246zM1042 63l-501 400l501 399v-244l-204 -155l204 -154v-246z" />
    <glyph glyph-name="registered" unicode="&#xae;" horiz-adv-x="2004" 
d="M975 528q78 0 122 38t44 104q0 64 -44 100t-122 35h-107v-277h107zM999 979q377 0 377 -280q0 -136 -59 -212t-168 -92l227 -383h-256l-213 373h-39v-373h-219v967h350zM1651 498q1 268 -189 458t-458 190t-458 -190t-192 -458q0 -268 190 -458t460 -192q268 0 458 191
t189 459zM1843 497q0 -347 -246 -594q-245 -247 -593 -247t-595 247t-247 595t247 594t595 246t594 -248q246 -246 245 -593z" />
    <glyph glyph-name="macron" unicode="&#xaf;" horiz-adv-x="831" 
d="M698 1104h-559v129h559v-129z" />
    <glyph glyph-name="degree" unicode="&#xb0;" horiz-adv-x="681" 
d="M465 1120q0 53 -38 91t-91 38t-90 -38t-37 -91t38 -91t90 -38t90 38t38 91zM586 1126q0 -102 -76 -178t-179 -76t-173 70t-70 174t75 180q75 74 178 74t174 -71t71 -173z" />
    <glyph glyph-name="plusminus" unicode="&#xb1;" 
d="M1049 0h-971v168h971v-168zM1049 532h-402v-319h-168v319h-401v168h401v320h168v-320h402v-168z" />
    <glyph glyph-name="acute" unicode="&#xb4;" horiz-adv-x="784" 
d="M854 1395l-231 -336h-166l194 336h203z" />
    <glyph glyph-name="mu" unicode="&#xb5;" horiz-adv-x="2048" 
d="M1759 -78l-1425 748l1425 745v-1493z" />
    <glyph glyph-name="paragraph" unicode="&#xb6;" horiz-adv-x="1318" 
d="M1198 -489h-207v1841h-153v-1841h-207v978h-90q-147 1 -291 139t-144 364t154 368q80 74 166 104t217 29h555v-1982z" />
    <glyph glyph-name="periodcentered" unicode="&#xb7;" horiz-adv-x="512" 
d="M418 480q0 -70 -47 -116t-115 -46t-115 46q-47 48 -47 116t47 116q47 47 115 47t115 -47t47 -116z" />
    <glyph glyph-name="cedilla" unicode="&#xb8;" horiz-adv-x="909" 
d="M684 -300q0 -79 -55 -131t-131 -52t-211 45l51 104q104 -45 148 -45t68 22q24 23 24 61t-31 57t-105 20h-65l117 192h102l-64 -114q72 0 112 -40t40 -119z" />
    <glyph glyph-name="ordmasculine" unicode="&#xba;" horiz-adv-x="1648" 
d="M592 1286q-180 0 -180 -282v-52h336v123q-1 80 24 164q-88 47 -180 47zM582 1489q149 0 286 -70q39 31 45 35q96 66 254 66q82 0 172 -27h187v-1493h-244v1300q-59 16 -104 17q-90 0 -140 -64q-27 -39 -36 -88t-9 -157v-56h181v-180h-181v-772h-245v772h-336v-772h-244
v772h-156v156l156 24v90q0 211 108 329q109 118 306 118z" />
    <glyph glyph-name="guillemotright" unicode="&#xbb;" horiz-adv-x="1146" 
d="M604 463l-502 -400v246l207 154l-207 155v244zM1094 463l-502 -400v246l207 154l-207 155v244z" />
    <glyph glyph-name="questiondown" unicode="&#xbf;" horiz-adv-x="856" 
d="M117 135q0 158 104 246q66 55 201 55h51v195h246v-395h-336q-14 -74 -14 -123q0 -151 107 -243t306 -112l-51 -231q-205 23 -331 99t-204 213q-79 138 -79 296zM764 924q0 -68 -47 -116t-115 -48t-115 48t-47 116t47 116t115 47q68 1 115 -47t47 -116z" />
    <glyph glyph-name="Agrave" unicode="&#xc0;" horiz-adv-x="1218" 
d="M768 553l-158 489l-155 -489h313zM1214 0h-270l-106 334h-453l-111 -334h-270l490 1352h231zM752 1413h-189l-231 242h227z" />
    <glyph glyph-name="Aacute" unicode="&#xc1;" horiz-adv-x="1218" 
d="M768 553l-158 489l-155 -489h313zM1214 0h-270l-106 334h-453l-111 -334h-270l490 1352h231zM905 1655l-231 -242h-191l193 242h229z" />
    <glyph glyph-name="Acircumflex" unicode="&#xc2;" horiz-adv-x="1218" 
d="M768 553l-158 489l-155 -489h313zM1214 0h-270l-106 334h-453l-111 -334h-270l490 1352h231zM926 1415h-178l-134 133l-133 -133h-176l230 240h161z" />
    <glyph glyph-name="Atilde" unicode="&#xc3;" horiz-adv-x="1218" 
d="M768 553l-158 489l-155 -489h313zM1214 0h-270l-106 334h-453l-111 -334h-270l490 1352h231zM752 1528q44 0 76 14t100 62l67 -109q-57 -55 -130 -85t-141 -30t-156 48q-87 48 -136 47q-49 0 -121 -45q-8 -6 -30 -19l-68 117q83 54 139 78t113 24l22 -2q35 -2 58 -12
t93 -49t114 -39z" />
    <glyph glyph-name="Adieresis" unicode="&#xc4;" horiz-adv-x="1218" 
d="M768 553l-158 489l-155 -489h313zM1214 0h-270l-106 334h-453l-111 -334h-270l490 1352h231zM899 1490q0 -46 -33 -79t-79 -33q-47 0 -79 32t-32 79t32 80t78 33t80 -33q33 -33 33 -79zM450 1606q46 0 78 -33t33 -79q0 -46 -33 -79q-34 -33 -78 -33t-78 34t-34 79t33 78
t79 33z" />
    <glyph glyph-name="Aring" unicode="&#xc5;" horiz-adv-x="1218" 
d="M768 553l-158 489l-155 -489h313zM690 1569q0 35 -24 61t-60 25q-34 0 -60 -26q-26 -27 -26 -61t26 -59t60 -25t60 25q24 25 24 60zM1214 0h-270l-106 334h-453l-111 -334h-270l490 1352h231zM803 1569q1 -82 -57 -139q-58 -58 -140 -58t-140 58t-58 139q0 82 58 140
t140 58t140 -58t57 -140z" />
    <glyph glyph-name="AE" unicode="&#xc6;" horiz-adv-x="1626" 
d="M739 541v583l-262 -583h262zM1556 0h-817v322h-356l-145 -322h-271l645 1352h920v-219h-547v-334h442v-219h-442v-361h571v-219z" />
    <glyph glyph-name="Ccedilla" unicode="&#xc7;" horiz-adv-x="1239" 
d="M336 683q0 -206 133 -337t354 -131q133 0 297 64l47 -218q-104 -47 -188 -65t-197 -23l-65 -116q82 0 127 -41t45 -119q-1 -78 -63 -138q-62 -61 -149 -61t-212 49l43 115q96 -39 139 -39t65 22q22 21 22 59t-25 56t-82 19h-86l123 198q-148 23 -226 56t-172 119
t-154 228q-60 144 -61 302q0 303 207 506q100 100 221 144t289 44q252 0 424 -129l-98 -205q-131 94 -319 94q-187 0 -313 -123q-126 -124 -126 -330z" />
    <glyph glyph-name="Egrave" unicode="&#xc8;" horiz-adv-x="1103" 
d="M1034 0h-850v1352h824v-219h-566v-334h463v-219h-463v-361h592v-219zM764 1413h-191l-231 242h227z" />
    <glyph glyph-name="Eacute" unicode="&#xc9;" horiz-adv-x="1103" 
d="M1034 0h-850v1352h824v-219h-566v-334h463v-219h-463v-361h592v-219zM903 1655l-231 -242h-191l195 242h227z" />
    <glyph glyph-name="Ecircumflex" unicode="&#xca;" horiz-adv-x="1103" 
d="M1034 0h-850v1352h824v-219h-566v-334h463v-219h-463v-361h592v-219zM922 1415h-179l-133 133l-133 -133h-178l229 240h164z" />
    <glyph glyph-name="Edieresis" unicode="&#xcb;" horiz-adv-x="1103" 
d="M1034 0h-850v1352h824v-219h-566v-334h463v-219h-463v-361h592v-219zM565 1497q0 -47 -33 -80q-34 -33 -78 -33t-78 33t-34 79t33 79t79 33t78 -32t33 -79zM922 1495q0 -45 -33 -78t-80 -33t-79 33t-32 79t33 79t79 33t79 -34t33 -79z" />
    <glyph glyph-name="Igrave" unicode="&#xcc;" horiz-adv-x="614" 
d="M436 0h-258v1352h258v-1352zM463 1413h-191l-231 242h229z" />
    <glyph glyph-name="Iacute" unicode="&#xcd;" horiz-adv-x="614" 
d="M436 0h-258v1352h258v-1352zM580 1655l-232 -242h-190l192 242h230z" />
    <glyph glyph-name="Icircumflex" unicode="&#xce;" horiz-adv-x="614" 
d="M436 0h-258v1352h258v-1352zM618 1415h-178l-133 133l-133 -133h-176l227 240h164z" />
    <glyph glyph-name="Idieresis" unicode="&#xcf;" horiz-adv-x="614" 
d="M436 0h-258v1352h258v-1352zM164 1612q46 0 78 -33t32 -79t-32 -79t-79 -33q-46 0 -79 34q-33 32 -33 77t34 79t79 34zM459 1612q45 0 77 -33t33 -79q-1 -46 -33 -79t-78 -33t-79 34q-33 32 -33 77t34 79t79 34z" />
    <glyph glyph-name="Ntilde" unicode="&#xd1;" horiz-adv-x="1554" 
d="M1356 -12h-271l-579 874q-44 66 -64 129v-991h-245v1352h297l567 -889l4 -4q2 -7 5 -13t7 -16t10 -22l13 -35l12 -25v1004h244v-1364zM924 1554q44 0 76 14t100 62l67 -108q-57 -55 -129 -85t-142 -30q-69 0 -156 47t-136 47t-121 -45q-8 -6 -30 -18l-68 116
q83 53 139 78t113 25l22 -2q35 -3 58 -13t93 -49t114 -39z" />
    <glyph glyph-name="Ograve" unicode="&#xd2;" horiz-adv-x="1562" 
d="M1225 676q0 205 -126 341t-318 136q-191 0 -317 -136t-126 -342t126 -341t317 -135t318 136q126 136 126 341zM1499 678q0 -311 -201 -508t-516 -197t-516 197t-202 508t198 505q199 193 519 193t519 -194t199 -504zM909 1413h-190l-232 242h230z" />
    <glyph glyph-name="Oacute" unicode="&#xd3;" horiz-adv-x="1562" 
d="M1225 676q0 205 -126 341t-318 136q-191 0 -317 -136t-126 -342t126 -341t317 -135t318 136q126 136 126 341zM1499 678q0 -311 -201 -508t-516 -197t-516 197t-202 508t198 505q199 193 519 193t519 -194t199 -504zM1087 1655l-231 -242h-190l194 242h227z" />
    <glyph glyph-name="Ocircumflex" unicode="&#xd4;" horiz-adv-x="1562" 
d="M1225 676q0 205 -126 341t-318 136q-191 0 -317 -136t-126 -342t126 -341t317 -135t318 136q126 136 126 341zM1499 678q0 -311 -201 -508t-516 -197t-516 197t-202 508t198 505q199 193 519 193t519 -194t199 -504zM1100 1415h-178l-134 133l-133 -133h-178l230 240h163
z" />
    <glyph glyph-name="Otilde" unicode="&#xd5;" horiz-adv-x="1562" 
d="M1225 676q0 205 -126 341t-318 136q-191 0 -317 -136t-126 -342t126 -341t317 -135t318 136q126 136 126 341zM1499 678q0 -311 -201 -508t-516 -197t-516 197t-202 508t198 505q199 193 519 193t519 -194t199 -504zM947 1569q44 0 76 14t99 62l68 -109q-57 -55 -130 -85
q-72 -30 -142 -30q-70 -1 -156 47t-135 48t-121 -46q-10 -6 -31 -18l-67 117q84 53 139 77t112 25l23 -2q36 -2 58 -12t92 -49t115 -39z" />
    <glyph glyph-name="Odieresis" unicode="&#xd6;" horiz-adv-x="1562" 
d="M1225 676q0 205 -126 341t-318 136q-191 0 -317 -136t-126 -342t126 -341t317 -135t318 136q126 136 126 341zM1499 678q0 -311 -201 -508t-516 -197t-516 197t-202 508t198 505q199 193 519 193t519 -194t199 -504zM1118 1507q0 -45 -33 -79t-79 -34t-78 34
q-33 32 -33 78t32 79t79 33q48 0 80 -33t32 -78zM670 1507q0 -45 -33 -77t-79 -33q-46 0 -79 33q-33 32 -33 78t33 79t78 33t79 -34t34 -79z" />
    <glyph glyph-name="Oslash" unicode="&#xd8;" horiz-adv-x="1562" 
d="M1225 674q0 145 -64 258l-655 -635q127 -109 280 -109q186 0 312 140t127 346zM338 680q0 -156 65 -262l656 633q-129 113 -281 112q-188 0 -314 -138t-126 -345zM1499 676q0 -309 -201 -506t-516 -197q-252 0 -465 150l-143 -148l-117 109l154 141q-80 115 -114 218
t-34 231q0 313 199 508q199 194 502 194t481 -145l135 133l119 -107l-145 -139q145 -188 145 -442z" />
    <glyph glyph-name="Ugrave" unicode="&#xd9;" horiz-adv-x="1433" 
d="M1284 528q0 -186 -40 -284t-146 -172q-143 -98 -381 -98t-383 98q-104 72 -145 171q-40 99 -39 285v824h256v-838q0 -301 319 -301q147 0 224 78t77 223v838h258v-824zM834 1413h-191l-231 242h227z" />
    <glyph glyph-name="Uacute" unicode="&#xda;" horiz-adv-x="1433" 
d="M1284 528q0 -186 -40 -284t-146 -172q-143 -98 -381 -98t-383 98q-104 72 -145 171q-40 99 -39 285v824h256v-838q0 -301 319 -301q147 0 224 78t77 223v838h258v-824zM1022 1655l-231 -242h-191l195 242h227z" />
    <glyph glyph-name="Ucircumflex" unicode="&#xdb;" horiz-adv-x="1433" 
d="M1284 528q0 -186 -40 -284t-146 -172q-143 -98 -381 -98t-383 98q-104 72 -145 171q-40 99 -39 285v824h256v-838q0 -301 319 -301q147 0 224 78t77 223v838h258v-824zM1034 1415h-178l-133 133l-133 -133h-176l229 240h162z" />
    <glyph glyph-name="Udieresis" unicode="&#xdc;" horiz-adv-x="1433" 
d="M1284 528q0 -186 -40 -284t-146 -172q-143 -98 -381 -98t-383 98q-104 72 -145 171q-40 99 -39 285v824h256v-838q0 -301 319 -301q147 0 224 78t77 223v838h258v-824zM1028 1490q0 -46 -33 -79t-80 -33t-79 32t-31 79q0 47 32 80q33 33 79 33t79 -33t33 -79zM610 1491
q0 -47 -32 -79t-80 -32q-47 0 -79 33t-32 79t33 79t79 33q47 0 79 -33t32 -80z" />
    <glyph glyph-name="germandbls" unicode="&#xdf;" horiz-adv-x="1179" 
d="M1165 246q0 -121 -99 -197t-265 -76q-53 1 -126 15t-167 75l65 168q149 -86 223 -86t113 28t39 69q0 61 -108 120q-156 90 -215 136q-93 76 -93 168t46 160t137 142q92 74 121 116q28 42 28 100t-58 98q-58 41 -147 41q-229 0 -229 -281v-1042h-244v772h-180v156l180 24
v129q0 203 128 319t344 116t328 -85t112 -243q0 -90 -40 -160t-144 -161t-129 -119q-23 -28 -23 -55q0 -28 17 -47t67 -50l119 -76q63 -39 120 -84q80 -69 80 -190z" />
    <glyph glyph-name="agrave" unicode="&#xe0;" horiz-adv-x="974" 
d="M326 264q0 -98 110 -98q59 0 152 72v186l-244 -80q-18 -47 -18 -80zM819 -12q-92 0 -132 20t-73 84q-129 -117 -258 -117q-128 0 -206 73t-78 185q0 47 20 105t71 96q50 38 154 70l271 78v80q0 150 -117 149q-55 0 -94 -26t-39 -60q0 -6 6 -25l-233 -51q-12 35 -13 66
q0 127 106 195t288 69q182 0 262 -73t80 -230v-397q0 -63 13 -83t62 -24l-39 -184h-51zM608 1059h-164l-231 336h203z" />
    <glyph glyph-name="aacute" unicode="&#xe1;" horiz-adv-x="974" 
d="M326 264q0 -98 110 -98q59 0 152 72v186l-244 -80q-18 -47 -18 -80zM819 -12q-92 0 -132 20t-73 84q-129 -117 -258 -117q-128 0 -206 73t-78 185q0 47 20 105t71 96q50 38 154 70l271 78v80q0 150 -117 149q-55 0 -94 -26t-39 -60q0 -6 6 -25l-233 -51q-12 35 -13 66
q0 127 106 195t288 69q182 0 262 -73t80 -230v-397q0 -63 13 -83t62 -24l-39 -184h-51zM803 1395l-232 -336h-163l192 336h203z" />
    <glyph glyph-name="acircumflex" unicode="&#xe2;" horiz-adv-x="974" 
d="M326 264q0 -98 110 -98q59 0 152 72v186l-244 -80q-18 -47 -18 -80zM819 -12q-92 0 -132 20t-73 84q-129 -117 -258 -117q-128 0 -206 73t-78 185q0 47 20 105t71 96q50 38 154 70l271 78v80q0 150 -117 149q-55 0 -94 -26t-39 -60q0 -6 6 -25l-233 -51q-12 35 -13 66
q0 127 106 195t288 69q182 0 262 -73t80 -230v-397q0 -63 13 -83t62 -24l-39 -184h-51zM815 1057h-178l-133 186l-133 -186h-178l229 336h164z" />
    <glyph glyph-name="atilde" unicode="&#xe3;" horiz-adv-x="974" 
d="M326 264q0 -98 110 -98q59 0 152 72v186l-244 -80q-18 -47 -18 -80zM819 -12q-92 0 -132 20t-73 84q-129 -117 -258 -117q-128 0 -206 73t-78 185q0 47 20 105t71 96q50 38 154 70l271 78v80q0 150 -117 149q-55 0 -94 -26t-39 -60q0 -6 6 -25l-233 -51q-12 35 -13 66
q0 127 106 195t288 69q182 0 262 -73t80 -230v-397q0 -63 13 -83t62 -24l-39 -184h-51zM636 1192q44 0 76 14t99 62l68 -109q-57 -55 -130 -85t-143 -30t-156 48t-134 47q-48 0 -152 -64l-68 117q84 53 140 78t112 24l23 -2q35 -2 57 -12t93 -49t115 -39z" />
    <glyph glyph-name="adieresis" unicode="&#xe4;" horiz-adv-x="974" 
d="M326 264q0 -98 110 -98q59 0 152 72v186l-244 -80q-18 -47 -18 -80zM819 -12q-92 0 -132 20t-73 84q-129 -117 -258 -117q-128 0 -206 73t-78 185q0 47 20 105t71 96q50 38 154 70l271 78v80q0 150 -117 149q-55 0 -94 -26t-39 -60q0 -6 6 -25l-233 -51q-12 35 -13 66
q0 127 106 195t288 69q182 0 262 -73t80 -230v-397q0 -63 13 -83t62 -24l-39 -184h-51zM323 1284q49 0 83 -35t34 -83t-34 -83t-83 -35q-48 0 -83 36q-35 34 -35 82t35 83t83 35zM768 1167q0 -49 -34 -83t-83 -34t-83 34t-33 83q0 49 33 83q34 34 83 34t83 -34t34 -83z" />
    <glyph glyph-name="aring" unicode="&#xe5;" horiz-adv-x="974" 
d="M326 264q0 -98 110 -98q59 0 152 72v186l-244 -80q-18 -47 -18 -80zM575 1210q0 35 -24 61q-25 25 -59 25t-61 -26q-25 -26 -25 -60q0 -36 26 -60t60 -24q35 0 59 24t24 60zM819 -12q-92 0 -132 20t-73 84q-129 -117 -258 -117q-128 0 -206 73t-78 185q0 47 20 105t71 96
q50 38 154 70l271 78v80q0 150 -117 149q-55 0 -94 -26t-39 -60q0 -6 6 -25l-233 -51q-12 35 -13 66q0 127 106 195t288 69q182 0 262 -73t80 -230v-397q0 -63 13 -83t62 -24l-39 -184h-51zM688 1210q0 -82 -57 -139t-139 -57t-141 57q-58 57 -58 139t58 140q59 58 141 59
q82 -1 139 -59t57 -140z" />
    <glyph glyph-name="ae" unicode="&#xe6;" horiz-adv-x="1513" 
d="M328 256q0 -36 26 -62t72 -26q86 0 162 76v168l-244 -64q-16 -55 -16 -92zM1221 629q0 73 -45 115t-122 42t-134 -52t-74 -142h373q2 12 2 37zM1092 164q133 0 286 106l90 -180q-82 -51 -96 -57q-139 -68 -315 -68q-242 0 -379 152q-90 -67 -167 -103t-181 -36t-180 72
q-78 73 -78 186q0 209 243 266l273 65v103q0 145 -117 145q-55 0 -94 -27t-39 -61q0 -10 4 -18l-231 -52q-12 29 -13 60q0 125 106 195t290 69q104 1 162 -23t77 -40q20 -16 47 -56q78 61 142 85t151 24q180 0 288 -117t107 -313v-103h-630q0 -111 32 -162q32 -52 94 -82
t128 -30z" />
    <glyph glyph-name="ccedilla" unicode="&#xe7;" horiz-adv-x="909" 
d="M461 -375q45 0 67 22q22 21 23 59q0 38 -25 56t-84 19h-86l121 192q-113 18 -171 44t-118 83q-139 134 -139 366t139 374t367 141q179 0 338 -94l-117 -187q-96 74 -204 74t-187 -86q-78 -86 -78 -216t70 -210t178 -80t248 82l90 -198q-92 -44 -144 -60t-149 -31
l-68 -116q82 0 127 -41t45 -119t-62 -138q-62 -61 -149 -61t-212 49l45 117q90 -41 135 -41z" />
    <glyph glyph-name="egrave" unicode="&#xe8;" horiz-adv-x="958" 
d="M510 795q-84 1 -137 -53t-68 -150h373q-4 109 -44 156t-124 47zM47 454q0 222 136 374q137 152 327 151q190 0 302 -122t112 -314v-105h-631q6 -104 35 -154t86 -81q58 -31 122 -31t126 18t172 89l90 -187q-209 -119 -418 -119t-334 129q-125 130 -125 352zM649 1059
h-164l-231 336h203z" />
    <glyph glyph-name="eacute" unicode="&#xe9;" horiz-adv-x="958" 
d="M510 795q-84 1 -137 -53t-68 -150h373q-4 109 -44 156t-124 47zM47 454q0 222 136 374q137 152 327 151q190 0 302 -122t112 -314v-105h-631q6 -104 35 -154t86 -81q58 -31 122 -31t126 18t172 89l90 -187q-209 -119 -418 -119t-334 129q-125 130 -125 352zM819 1395
l-231 -336h-164l192 336h203z" />
    <glyph glyph-name="ecircumflex" unicode="&#xea;" horiz-adv-x="958" 
d="M510 795q-84 1 -137 -53t-68 -150h373q-4 109 -44 156t-124 47zM47 454q0 222 136 374q137 152 327 151q190 0 302 -122t112 -314v-105h-631q6 -104 35 -154t86 -81q58 -31 122 -31t126 18t172 89l90 -187q-209 -119 -418 -119t-334 129q-125 130 -125 352zM846 1057
h-178l-133 186l-134 -186h-178l230 336h163z" />
    <glyph glyph-name="edieresis" unicode="&#xeb;" horiz-adv-x="958" 
d="M510 795q-84 1 -137 -53t-68 -150h373q-4 109 -44 156t-124 47zM47 454q0 222 136 374q137 152 327 151q190 0 302 -122t112 -314v-105h-631q6 -104 35 -154t86 -81q58 -31 122 -31t126 18t172 89l90 -187q-209 -119 -418 -119t-334 129q-125 130 -125 352zM475 1161
q0 -49 -34 -83t-83 -34t-83 34t-33 83q0 49 33 83q34 34 83 34t83 -34t34 -83zM813 1161q0 -49 -34 -83t-83 -34t-83 34t-33 83q0 49 33 83q34 34 83 34t83 -34t34 -83z" />
    <glyph glyph-name="igrave" unicode="&#xec;" horiz-adv-x="505" 
d="M375 0h-244v952h244v-952zM379 1059h-164l-231 336h202z" />
    <glyph glyph-name="iacute" unicode="&#xed;" horiz-adv-x="505" 
d="M375 0h-244v952h244v-952zM549 1395l-232 -336h-163l192 336h203z" />
    <glyph glyph-name="icircumflex" unicode="&#xee;" horiz-adv-x="505" 
d="M375 0h-244v952h244v-952zM578 1057h-179l-133 186l-133 -186h-176l229 336h162z" />
    <glyph glyph-name="idieresis" unicode="&#xef;" horiz-adv-x="505" 
d="M375 0h-244v952h244v-952zM227 1161q-1 -49 -35 -83t-82 -34t-83 34t-35 83t35 83t83 34t82 -34t35 -83zM545 1161q0 -49 -34 -83t-83 -34t-83 34t-34 83t34 83t83 34t83 -34t34 -83z" />
    <glyph glyph-name="ntilde" unicode="&#xf1;" horiz-adv-x="1116" 
d="M979 0h-246v612q0 90 -17 126t-63 36q-76 0 -229 -166l-33 -35v-573h-246v952h246v-157q86 94 163 135t167 41q258 0 258 -271v-700zM714 1198q44 0 76 14t99 62l67 -109q-58 -55 -130 -85t-142 -30t-156 48q-86 47 -137 47t-149 -64l-68 117q84 53 140 78t112 24l23 -2
q35 -2 57 -12t93 -49t115 -39z" />
    <glyph glyph-name="ograve" unicode="&#xf2;" horiz-adv-x="1056" 
d="M754 476q0 126 -67 217t-159 91t-158 -91t-67 -217q0 -126 67 -217q66 -91 158 -91t159 91t67 217zM528 979q204 -1 342 -145t138 -358t-138 -358t-342 -144q-205 0 -342 144t-137 358t137 358t342 145zM635 1059h-164l-231 336h202z" />
    <glyph glyph-name="oacute" unicode="&#xf3;" horiz-adv-x="1056" 
d="M754 476q0 126 -67 217t-159 91t-158 -91t-67 -217q0 -126 67 -217q66 -91 158 -91t159 91t67 217zM528 979q204 -1 342 -145t138 -358t-138 -358t-342 -144q-205 0 -342 144t-137 358t137 358t342 145zM827 1395l-231 -336h-164l193 336h202z" />
    <glyph glyph-name="ocircumflex" unicode="&#xf4;" horiz-adv-x="1056" 
d="M754 476q0 126 -67 217t-159 91t-158 -91t-67 -217q0 -126 67 -217q66 -91 158 -91t159 91t67 217zM528 979q204 -1 342 -145t138 -358t-138 -358t-342 -144q-205 0 -342 144t-137 358t137 358t342 145zM848 1057h-178l-133 186l-134 -186h-178l230 336h163z" />
    <glyph glyph-name="otilde" unicode="&#xf5;" horiz-adv-x="1056" 
d="M754 476q0 126 -67 217t-159 91t-158 -91t-67 -217q0 -126 67 -217q66 -91 158 -91t159 91t67 217zM528 979q204 -1 342 -145t138 -358t-138 -358t-342 -144q-205 0 -342 144t-137 358t137 358t342 145zM683 1192q44 0 76 14t99 62l68 -109q-57 -55 -130 -85
q-74 -30 -142 -30t-156 48t-136 47q-48 0 -120 -45q-8 -6 -31 -19l-68 117q83 53 139 78t113 24l23 -2q36 -2 58 -12t92 -49t115 -39z" />
    <glyph glyph-name="odieresis" unicode="&#xf6;" horiz-adv-x="1056" 
d="M754 476q0 126 -67 217t-159 91t-158 -91t-67 -217q0 -126 67 -217q66 -91 158 -91t159 91t67 217zM528 979q204 -1 342 -145t138 -358t-138 -358t-342 -144q-205 0 -342 144t-137 358t137 358t342 145zM489 1161q-1 -49 -35 -83t-82 -34t-83 34t-35 83t35 83t83 34
t82 -34t35 -83zM817 1161q0 -49 -35 -83t-83 -34t-83 34t-34 83q0 49 34 83q35 34 83 34t83 -34t35 -83z" />
    <glyph glyph-name="divide" unicode="&#xf7;" 
d="M702 98q0 -57 -40 -97t-96 -40q-58 0 -98 40t-40 97q0 58 40 98t97 40t98 -40q39 -41 39 -98zM1075 401h-1024v168h1024v-168zM705 874q0 -57 -40 -97q-39 -40 -97 -40t-98 40t-40 97q0 58 40 98t97 40t98 -40q40 -41 40 -98z" />
    <glyph glyph-name="oslash" unicode="&#xf8;" horiz-adv-x="1091" 
d="M788 477q0 55 -20 123l-377 -364q63 -68 161 -68t167 89t69 220zM542 784q-93 0 -166 -87t-73 -205v-15l12 -98q0 -18 7 -19l372 361q-59 63 -152 63zM1042 477q0 -195 -128 -349t-373 -155q-186 0 -316 105l-145 -141l-105 92l160 153q-86 143 -86 295q0 193 128 347
t374 155q190 0 307 -98l143 141l109 -88l-160 -158q92 -147 92 -299z" />
    <glyph glyph-name="ugrave" unicode="&#xf9;" horiz-adv-x="1116" 
d="M971 0h-246v160q-86 -94 -163 -135t-167 -41q-258 0 -258 268v700h246v-612q0 -88 17 -125t61 -37q74 0 231 166l33 35v573h246v-952zM668 1059h-166l-232 336h203z" />
    <glyph glyph-name="uacute" unicode="&#xfa;" horiz-adv-x="1116" 
d="M971 0h-246v160q-86 -94 -163 -135t-167 -41q-258 0 -258 268v700h246v-612q0 -88 17 -125t61 -37q74 0 231 166l33 35v573h246v-952zM862 1395l-233 -336h-164l192 336h205z" />
    <glyph glyph-name="ucircumflex" unicode="&#xfb;" horiz-adv-x="1116" 
d="M971 0h-246v160q-86 -94 -163 -135t-167 -41q-258 0 -258 268v700h246v-612q0 -88 17 -125t61 -37q74 0 231 166l33 35v573h246v-952zM872 1057h-176l-133 186l-133 -186h-178l229 336h164z" />
    <glyph glyph-name="udieresis" unicode="&#xfc;" horiz-adv-x="1116" 
d="M971 0h-246v160q-86 -94 -163 -135t-167 -41q-258 0 -258 268v700h246v-612q0 -88 17 -125t61 -37q74 0 231 166l33 35v573h246v-952zM477 1156q0 -48 -35 -83t-83 -35t-83 35q-34 35 -34 83t34 83q35 35 83 35t83 -35t35 -83zM879 1159q0 -49 -35 -83t-83 -34t-83 34
t-35 83t35 83t83 34t83 -34t35 -83z" />
    <glyph glyph-name="ydieresis" unicode="&#xff;" horiz-adv-x="886" 
d="M877 952l-320 -901q-61 -174 -154 -325q-63 -111 -167 -240l-201 131q119 125 176 219q80 123 145 309l-350 807h266l168 -424l25 -114l27 114l143 424h242zM784 1161q0 -49 -34 -83t-82 -34q-49 0 -83 34t-34 83t34 83t83 34q48 0 82 -34t34 -83zM389 1163
q0 -49 -34 -83t-83 -34t-83 34t-33 83q0 49 33 83q34 34 83 34t83 -34t34 -83z" />
    <glyph glyph-name="dotlessi" unicode="&#x131;" horiz-adv-x="505" 
d="M375 0h-244v952h244v-952z" />
    <glyph glyph-name="OE" unicode="&#x152;" horiz-adv-x="1880" 
d="M782 1159q-192 0 -318 -137t-126 -348t126 -347t320 -137q86 1 199 48v876q-111 45 -201 45zM1810 0h-819q-127 -27 -211 -27q-315 0 -515 197t-201 508t199 505t521 193q100 0 207 -24h793v-219h-535v-334h432v-219h-432v-361h561v-219z" />
    <glyph glyph-name="oe" unicode="&#x153;" horiz-adv-x="1710" 
d="M791 477q0 125 -69 208t-173 83t-173 -83t-69 -208t69 -208t173 -83t173 83t69 208zM1241 793q-84 1 -137 -53t-66 -148h373q-10 111 -48 156t-122 45zM540 -27q-228 1 -358 153q-129 152 -129 349t128 351t378 153q250 0 356 -158q123 156 319 156t309 -121
q114 -121 114 -315v-103h-631q0 -98 31 -152t89 -86t124 -32q139 0 297 115l90 -193q-213 -119 -421 -119t-339 133q-129 -131 -357 -131z" />
    <glyph glyph-name="Ydieresis" unicode="&#x178;" 
d="M674 0h-258v580l-412 772h283l270 -529l285 529h282l-450 -772v-580zM483 1497q-1 -47 -33 -80t-77 -33t-79 33t-34 79t33 79t79 33t78 -32t33 -79zM752 1610q48 0 80 -33t32 -79t-33 -79t-79 -33t-79 33q-32 33 -32 79t32 79t79 33z" />
    <glyph glyph-name="florin" unicode="&#x192;" horiz-adv-x="1179" 
d="M-293 -385l160 205q82 -113 147 -113q31 0 71 24t65 56q55 74 108 272l205 754h-164l37 139h162l30 113q66 229 207 338q127 94 272 94t277 -119l-160 -204q-82 112 -148 112t-127 -74q-62 -74 -95 -186l-21 -74h209l-37 -139h-211l-231 -883q-53 -194 -181 -314
t-288 -120q-159 0 -287 119z" />
    <glyph glyph-name="circumflex" unicode="&#x2c6;" horiz-adv-x="786" 
d="M707 1057h-179l-133 186l-133 -186h-176l227 336h164z" />
    <glyph glyph-name="caron" unicode="&#x2c7;" horiz-adv-x="692" 
d="M639 1335l-229 -336h-129l-234 336h143l156 -219l154 219h139z" />
    <glyph glyph-name="breve" unicode="&#x2d8;" horiz-adv-x="720" 
d="M360 1133q145 0 199 219h129q-20 -92 -40 -140t-60 -98q-90 -110 -224 -110t-231 110q-39 47 -59 95t-41 143h129q53 -219 198 -219z" />
    <glyph glyph-name="dotaccent" unicode="&#x2d9;" horiz-adv-x="479" 
d="M243 1276q43 0 73 -31t30 -73t-31 -72t-73 -31q-42 0 -72 31q-31 30 -31 72t31 73t73 31z" />
    <glyph glyph-name="ring" unicode="&#x2da;" horiz-adv-x="497" 
d="M334 1176q0 34 -25 60t-59 26t-61 -26q-25 -26 -25 -60t26 -60q26 -24 60 -24q36 0 60 24t24 60zM446 1176q0 -82 -57 -140t-139 -57q-82 0 -140 57q-58 58 -58 140t58 140t140 58t139 -58t57 -140z" />
    <glyph glyph-name="ogonek" unicode="&#x2db;" horiz-adv-x="516" 
d="M258 -393q-90 0 -90 97t86 255l20 39h70q-48 -122 -61 -191l67 -169q-45 -31 -92 -31z" />
    <glyph glyph-name="tilde" unicode="&#x2dc;" horiz-adv-x="929" 
d="M624 1192q44 0 76 14t99 62l67 -109q-57 -55 -130 -85q-72 -30 -142 -30t-156 48t-137 47q-51 0 -149 -64l-68 117q84 53 140 78t112 24l22 -2q35 -2 58 -12t93 -49q71 -39 115 -39z" />
    <glyph glyph-name="hungarumlaut" unicode="&#x2dd;" horiz-adv-x="784" 
d="M467 1352l-231 -334h-144l195 334h180zM748 1352l-232 -334h-141l192 334h181z" />
    <glyph glyph-name="Delta" unicode="&#x394;" horiz-adv-x="1085" 
d="M711 772h-299v-772h-244v772h-156v156l156 24v123q0 211 108 328q109 117 308 117q86 0 153 -21q92 -23 215 -108l-114 -193q-76 68 -126 92t-110 25q-94 -1 -142 -61t-48 -246v-56h544v-1071q-53 -127 -99 -203t-122 -176l-178 127q72 90 100 160q53 121 54 279v704z
" />
    <glyph glyph-name="Omega" unicode="&#x3a9;" horiz-adv-x="2048" 
d="M1806 670l-1423 -748v1495z" />
    <glyph glyph-name="pi" unicode="&#x3c0;" horiz-adv-x="2048" 
d="M1698 0h-1352v1352h1352v-1352z" />
    <glyph glyph-name="endash" unicode="&#x2013;" 
d="M1126 391h-1126v170h1126v-170z" />
    <glyph glyph-name="emdash" unicode="&#x2014;" horiz-adv-x="2048" 
d="M2048 391h-2048v170h2048v-170z" />
    <glyph glyph-name="quoteleft" unicode="&#x2018;" horiz-adv-x="514" 
d="M254 725q-160 0 -160 172q0 203 172 455h146q-83 -175 -97 -308l113 -272q-96 -47 -174 -47z" />
    <glyph glyph-name="quoteright" unicode="&#x2019;" horiz-adv-x="514" 
d="M260 1376q162 0 162 -170q0 -201 -172 -454h-148q90 169 97 305l-113 274q92 45 174 45z" />
    <glyph glyph-name="quotesinglbase" unicode="&#x201a;" horiz-adv-x="512" 
d="M261 287q157 0 157 -170q0 -94 -46 -217t-124 -238h-148q85 161 97 305l-113 275q98 45 177 45z" />
    <glyph glyph-name="quotedblleft" unicode="&#x201c;" horiz-adv-x="894" 
d="M254 725q-160 0 -160 172q0 203 172 455h146q-83 -175 -97 -308l113 -272q-96 -47 -174 -47zM635 725q-162 0 -162 172q0 203 172 455h146q-83 -175 -97 -308l113 -272q-94 -47 -172 -47z" />
    <glyph glyph-name="quotedblright" unicode="&#x201d;" horiz-adv-x="894" 
d="M260 1395q162 0 162 -172q0 -199 -172 -455h-148q90 175 97 305l-113 275q96 47 174 47zM639 1395q162 0 162 -172q0 -203 -172 -455h-146q83 174 97 305l-113 275q94 47 172 47z" />
    <glyph glyph-name="quotedblbase" unicode="&#x201e;" horiz-adv-x="890" 
d="M261 287q157 0 157 -170q0 -94 -46 -217t-124 -238h-148q85 161 97 305l-113 275q98 45 177 45zM799 117q0 -201 -172 -455h-148q35 66 64 153t32 152l-112 275q98 45 174 45q162 0 162 -170z" />
    <glyph glyph-name="dagger" unicode="&#x2020;" horiz-adv-x="1173" 
d="M700 424l-18 -932h-193l-16 932l35 303h158zM444 797l-323 -35v252l323 -35v-182zM1053 762l-324 35v182l324 35v-252zM711 1352l-52 -291h-143l-53 291h248z" />
    <glyph glyph-name="daggerdbl" unicode="&#x2021;" horiz-adv-x="1173" 
d="M711 -508h-248l53 291h143zM444 -137l-323 -33v252l323 -35v-184zM1053 -170l-324 33v184l324 35v-252zM700 422l-34 -307h-158l-35 307l35 305h158zM444 797l-323 -35v252l323 -35v-182zM1053 762l-324 35v182l324 35v-252zM711 1352l-52 -291h-143l-53 291h248z" />
    <glyph glyph-name="bullet" unicode="&#x2022;" horiz-adv-x="720" 
d="M686 473q0 -135 -95 -230t-231 -95t-230 94q-95 96 -95 231t95 230t230 95q134 0 230 -94q96 -96 96 -231z" />
    <glyph glyph-name="ellipsis" unicode="&#x2026;" horiz-adv-x="1536" 
d="M262 305q68 0 110 -48q44 -48 44 -116q0 -69 -54 -117t-120 -48q-68 0 -110 48t-42 116t52 116q52 49 120 49zM946 143q0 -69 -53 -117t-121 -48t-109 48q-42 48 -42 116t52 115q51 48 119 48t111 -47t43 -115zM1462 143q0 -69 -53 -117t-121 -48t-109 48q-42 48 -42 116
t52 115q51 48 119 48t111 -47t43 -115z" />
    <glyph glyph-name="perthousand" unicode="&#x2030;" horiz-adv-x="2527" 
d="M1112 332q0 -84 58 -142t142 -59t143 59q58 60 58 143t-58 141t-142 58q-85 0 -143 -58t-58 -142zM2097 131q81 -1 141 59t60 143t-58 141t-143 58q-84 0 -142 -58q-59 -58 -59 -141t60 -143t141 -59zM629 1014q-1 84 -59 142t-142 58t-142 -58t-58 -142t58 -142t142 -59
q84 1 142 59t59 142zM1671 334q0 -148 -105 -254t-254 -106t-253 104q-105 106 -105 255t104 253t254 104q148 0 254 -104t105 -252zM2097 690q151 0 255 -104t104 -252t-104 -254t-255 -106q-150 0 -254 104q-104 106 -104 255t104 253t254 104zM1536 1403l-1157 -1493
h-195l1159 1493h193zM786 1014q0 -150 -104 -254t-252 -104t-254 104t-106 254t105 255t254 105t253 -105t104 -255z" />
    <glyph glyph-name="guilsinglleft" unicode="&#x2039;" horiz-adv-x="657" 
d="M553 63l-502 400l502 399v-244l-205 -155l205 -154v-246z" />
    <glyph glyph-name="guilsinglright" unicode="&#x203a;" horiz-adv-x="657" 
d="M604 463l-502 -400v246l207 154l-207 155v244z" />
    <glyph glyph-name="fraction" unicode="&#x2044;" horiz-adv-x="681" 
d="M627 705l-283 -451h-250l271 451h262z" />
    <glyph glyph-name="trademark" unicode="&#x2122;" horiz-adv-x="1767" 
d="M659 1198h-180v-504h-205v504h-180v154h565v-154zM1677 694h-207v439h-12l-12 -91l-156 -348h-180l-141 363l-13 90h-12v-453h-180v658h295l129 -400l12 -51h14l13 51l141 400h309v-658z" />
    <glyph glyph-name="partialdiff" unicode="&#x2202;" horiz-adv-x="1323" 
d="M1038 473q0 109 -67 213l-504 -504q104 -70 211 -69q152 0 256 104t104 256zM883 774q-96 63 -203 64q-152 0 -257 -106t-106 -257q0 -104 66 -207zM1174 477q0 -207 -146 -354t-352 -148q-160 0 -307 109l-209 -209l-82 86l207 211q-100 131 -101 301q0 211 144 356
t350 146q160 0 303 -105l184 189l86 -86l-184 -189l37 -55q70 -117 70 -252z" />
    <glyph glyph-name="product" unicode="&#x220f;" horiz-adv-x="2048" 
d="M1575 123v1106h-1106v-1106h1106zM1698 0h-1352v1352h1352v-1352z" />
    <glyph glyph-name="infinity" unicode="&#x221e;" 
d="M1063 82l-119 -119l-381 381l-381 -381l-119 119l381 381l-381 381l119 119l381 -381l381 381l119 -119l-381 -381z" />
    <glyph glyph-name="approxequal" unicode="&#x2248;" horiz-adv-x="1114" 
d="M10 315q173 138 324 138q68 0 166 -43l102 -45q86 -37 149 -37t121 20t140 78l92 -145q-169 -125 -342 -125q-62 0 -116 15t-146 58t-150 43q-129 0 -256 -98zM10 596q165 137 321 137q75 0 169 -43l102 -43q80 -37 146 -37q133 0 264 99l92 -146q-175 -125 -342 -125
q-62 0 -116 16t-146 58q-92 43 -150 43q-129 0 -256 -98z" />
    <glyph glyph-name="notequal" unicode="&#x2260;" 
d="M1075 225h-575l-158 -264l-154 80l121 184h-258v168h361l104 170h-465v166h572l139 244l156 -86l-101 -158h258v-166h-362l-109 -170h471v-168z" />
    <glyph glyph-name="lessequal" unicode="&#x2264;" 
d="M1047 0h-967v168h967v-168zM1047 240l-967 327v111l967 326v-154l-656 -227l656 -228v-155z" />
    <glyph glyph-name="greaterequal" unicode="&#x2265;" 
d="M1047 0h-967v168h967v-168zM1047 567l-967 -327v155l655 228l-655 227v154l967 -326v-111z" />
    <glyph glyph-name="fi" unicode="&#xfb01;" horiz-adv-x="1085" 
d="M954 0h-245v772h-297v-772h-244v772h-156v156l156 24v123q0 211 108 328q109 117 308 117q86 0 153 -21q92 -23 215 -108l-114 -193q-76 68 -126 92t-110 25q-94 -1 -142 -61t-48 -246v-56h542v-952z" />
    <glyph glyph-name="fl" unicode="&#xfb02;" horiz-adv-x="1067" 
d="M946 0h-246v1300q-55 16 -104 17q-92 0 -137 -64q-29 -41 -38 -90t-9 -155v-56h180v-180h-180v-772h-244v772h-156v156l156 24v123q0 213 110 329t308 116q82 0 174 -27h186v-1493z" />
    </font>
</defs>
</svg>
