<?xml version="1.0" standalone="no"?>
<!DOCTYPE svg PUBLIC "-//W3C//DTD SVG 1.1//EN" "http://www.w3.org/Graphics/SVG/1.1/DTD/svg11.dtd" >
<svg xmlns="http://www.w3.org/2000/svg">
<metadata>
Created by FontPrep 20130207 at Sun May  8 16:17:19 2016
 By Corey Margulis
Copyright 1990 Martin Majoor. Published by FontShop International for the FontFont library. ScalaSans is a trademark of FSI, Fonts and Software GmbH. http://www.fontfont.de
</metadata>
<defs>
<font id="e939da63d2118d945b4f42d665eee236" horiz-adv-x='1024' >
  <font-face 
    font-family="ScalaSans-BoldItalic"
    font-weight="500"
    font-style="italic"
    font-stretch="normal"
    units-per-em="2048"
    panose-1="0 0 0 0 0 0 0 0 0 0"
    ascent="1638"
    descent="-410"
    x-height="952"
    cap-height="1352"
    bbox="-420 -547 2456 1774"
    underline-thickness="86"
    underline-position="-296"
    slope="-11"
    unicode-range="U+0020-FB02"
  />
<missing-glyph horiz-adv-x="512" 
 />
    <glyph glyph-name=".notdef" horiz-adv-x="512" 
 />
    <glyph glyph-name=".null" horiz-adv-x="0" 
 />
    <glyph glyph-name="nonmarkingreturn" horiz-adv-x="681" 
 />
    <glyph glyph-name="space" unicode=" " horiz-adv-x="512" 
 />
    <glyph glyph-name="exclam" unicode="!" horiz-adv-x="540" 
d="M362 125q0 -68 -53 -117t-121 -49t-109 48q-42 48 -42 116t52 117q51 49 119 49t111 -48t43 -116zM547 1507l-189 -1108h-231l154 1055z" />
    <glyph glyph-name="quotedbl" unicode="&#x22;" horiz-adv-x="843" 
d="M492 1352l-72 -465h-172l74 465h170zM821 1352l-73 -465h-170l73 465h170z" />
    <glyph glyph-name="numbersign" unicode="#" 
d="M680 780h-199l-35 -192h195zM1169 987l-45 -207h-223l-35 -192h226l-37 -199h-228l-73 -389h-222l72 389h-198l-74 -389h-221l75 389h-229l37 199h231l39 192h-233l45 207h233l70 361h219l-70 -361h197l68 361h223l-68 -361h221z" />
    <glyph glyph-name="dollar" unicode="$" horiz-adv-x="1112" 
d="M844 350q0 64 -27 100t-96 74l-49 -331q172 31 172 157zM530 1026q0 -45 25 -77t90 -66l47 288q-162 -12 -162 -145zM1108 406q0 -147 -117 -271q-67 -73 -143 -107t-211 -55l-19 -114h-135l19 114q-92 12 -172 36t-203 85l111 215q92 -63 146 -85t153 -31l65 421
q-238 146 -302 256q-32 55 -32 127q0 156 126 260t331 121l18 115h134l-19 -115q185 -18 318 -94l-117 -188q-88 43 -130 56t-104 19l-61 -378q41 -31 129 -89t106 -73q49 -39 79 -101t30 -124z" />
    <glyph glyph-name="percent" unicode="%" horiz-adv-x="1740" 
d="M629 1014q-1 84 -59 142t-142 58t-142 -58t-58 -142t58 -142t142 -59q84 1 142 59t59 142zM1112 332q0 -84 58 -142t142 -59t143 59q58 60 58 143t-58 141t-142 58q-85 0 -143 -58t-58 -142zM786 1014q0 -150 -104 -254t-252 -104t-254 104t-106 254t105 255t254 105
t253 -105t104 -255zM1536 1403l-1157 -1493h-195l1159 1493h193zM1671 334q0 -148 -105 -254t-254 -106t-253 104q-105 106 -105 255t104 253t254 104q148 0 254 -104t105 -252z" />
    <glyph glyph-name="ampersand" unicode="&#x26;" horiz-adv-x="1220" 
d="M629 774q1 66 -59 66t-138 -101q-53 -67 -88 -177t-35 -206q0 -195 94 -194q45 0 87 15t118 61l-202 288q92 31 139 78q84 78 84 170zM1194 -461q-100 0 -217 172l-264 385q-113 -68 -187 -92t-180 -22q-106 0 -156 20q-124 51 -124 326t150 463q151 188 374 188
q124 0 194 -48t70 -138t-55 -175q-37 -57 -135 -106l112 -156q84 84 129 158q84 139 109 307l41 258h-193l23 156h549l-25 -156h-166l-43 -282q-31 -205 -153 -391q-51 -76 -168 -195l202 -297q11 -14 63 -82t90 -68t116 80l110 -149q-53 -47 -82 -70q-111 -86 -184 -86z
" />
    <glyph glyph-name="quotesingle" unicode="'" horiz-adv-x="514" 
d="M492 1352l-72 -465h-172l74 465h170z" />
    <glyph glyph-name="parenleft" unicode="(" horiz-adv-x="632" 
d="M397 84q0 -318 86 -598h-219q-23 55 -22 59q-33 92 -57 258t-23 306q0 311 103 635t296 610h217q-381 -641 -381 -1270z" />
    <glyph glyph-name="parenright" unicode=")" horiz-adv-x="632" 
d="M268 756q0 335 -86 596h219q16 -42 36 -96q19 -54 43 -221t24 -306q0 -311 -104 -635t-296 -608h-217q381 643 381 1270z" />
    <glyph glyph-name="asterisk" unicode="*" horiz-adv-x="1024" 
d="M498 762l-162 -256l-178 131l190 233zM393 1081l-57 -176l-293 78l68 209zM870 637l-180 -129l-162 254l150 108zM625 1403l-19 -303h-184l-19 303h222zM981 981l-293 -76l-57 176l282 111z" />
    <glyph glyph-name="plus" unicode="+" 
d="M1049 401h-402v-401h-168v401h-401v168h401v402h168v-402h402v-168z" />
    <glyph glyph-name="comma" unicode="," horiz-adv-x="514" 
d="M234 287q78 -1 110 -31t33 -108q0 -78 -69 -216t-179 -270h-147q108 163 145 305l-70 275q99 45 177 45z" />
    <glyph glyph-name="hyphen" unicode="-" horiz-adv-x="565" 
d="M524 584l-37 -228h-430l39 228h428z" />
    <glyph glyph-name="period" unicode="." horiz-adv-x="514" 
d="M224 303q66 0 110 -48t43 -116q0 -69 -52 -117q-51 -48 -119 -48t-112 48t-43 116q0 68 53 116q54 49 120 49z" />
    <glyph glyph-name="slash" unicode="/" horiz-adv-x="837" 
d="M1012 1352l-809 -1854h-246l809 1854h246z" />
    <glyph glyph-name="zero" unicode="0" horiz-adv-x="1081" 
d="M565 158q111 0 197 110t86 237q0 128 -55 205t-140 76q-113 0 -201 -106t-90 -234q0 -128 58 -208t145 -80zM1096 547q0 -252 -155 -412t-400 -162q-199 0 -310 113t-110 315q0 25 4 70q29 225 176 363t359 137q212 1 324 -111t112 -313z" />
    <glyph glyph-name="one" unicode="1" horiz-adv-x="747" 
d="M702 991l-157 -991h-244l113 721l-260 -103l-60 193l492 180h116z" />
    <glyph glyph-name="two" unicode="2" horiz-adv-x="878" 
d="M879 731q0 -217 -220 -383l-219 -168h387l-28 -180h-772l18 117l291 217q283 213 285 364q0 41 -32 67t-85 26q-82 0 -268 -121l-113 180q49 27 129 65q162 78 320 78q308 0 307 -262z" />
    <glyph glyph-name="three" unicode="3" horiz-adv-x="839" 
d="M801 727q0 -168 -127 -272q-63 -53 -185 -95l25 2q254 20 254 -262q0 -218 -166 -374t-397 -156q-144 0 -287 70l88 180q12 -6 55 -29q68 -27 144 -27q125 0 215 100t90 234q0 70 -47 108t-133 38h-115l37 155q121 37 205 120t84 165q0 43 -31 76t-72 33q-88 0 -241 -84
l-78 153q206 124 371 124q311 -2 311 -259z" />
    <glyph glyph-name="four" unicode="4" horiz-adv-x="952" 
d="M625 657q-23 -37 -28 -47t-9 -16t-11 -18t-19 -32q-12 -18 -21 -30l-258 -334h256l49 309q8 59 41 168zM895 180l-29 -180h-127l-67 -424h-232l66 424h-526l14 90l696 901h205l-127 -811h127z" />
    <glyph glyph-name="five" unicode="5" horiz-adv-x="823" 
d="M791 116q0 -224 -163 -385t-386 -161q-121 0 -271 57l70 193q135 -55 217 -56q115 0 196 94t81 213q0 120 -66 162q-80 49 -186 50h-129l108 696h619l-33 -207h-373l-49 -309q131 -12 201 -45q164 -78 164 -302z" />
    <glyph glyph-name="six" unicode="6" 
d="M856 1174q-174 0 -300 -208t-126 -497q0 -143 47 -228t133 -85t156 97t70 228q0 162 -205 162h-51l24 156q113 23 178 22q138 0 226 -90t88 -233q0 -219 -148 -371t-358 -152q-209 0 -316 124q-106 124 -106 362q0 369 196 641t457 272q149 0 314 -74l-82 -192
q-125 66 -197 66z" />
    <glyph glyph-name="seven" unicode="7" horiz-adv-x="860" 
d="M936 979l-23 -141l-303 -619q-173 -346 -426 -657l-172 129q140 166 226 293t180 325l213 451h-527l35 219h797z" />
    <glyph glyph-name="eight" unicode="8" horiz-adv-x="1038" 
d="M782 365q0 84 -57 137l-125 116l-115 -77q-59 -41 -97 -105t-38 -128q0 -66 53 -110t145 -44t163 63q71 64 71 148zM825 1071q0 55 -35 90q-36 35 -101 35t-114 -40t-49 -98t37 -106l76 -90l117 78q69 47 69 131zM1042 338q0 -158 -154 -259t-372 -101q-220 0 -320 76
q-100 77 -100 225q0 88 57 186q56 98 140 153l172 115l-88 90q-107 111 -107 245t129 220t313 86t276 -68q93 -68 93 -184q0 -117 -83 -209q-36 -39 -107 -90l-129 -90l135 -115q145 -122 145 -280z" />
    <glyph glyph-name="nine" unicode="9" 
d="M1067 500q0 -367 -196 -640t-457 -274q-35 0 -125 14t-187 66l82 193q111 -72 197 -72q172 0 298 209t126 498q0 143 -47 227t-133 84t-156 -96t-70 -206t46 -146t161 -35h51l-24 -154q-94 -29 -164 -29q-150 0 -240 88t-90 236q1 219 149 371t357 152t315 -124t107 -362
z" />
    <glyph glyph-name="colon" unicode=":" horiz-adv-x="514" 
d="M224 303q66 0 110 -48t43 -116q0 -69 -52 -117q-51 -48 -119 -48t-112 48t-43 116q0 68 53 116q54 49 120 49zM485 816q0 -69 -53 -117q-52 -48 -120 -48t-110 47t-42 116t52 117t120 48t110 -47q43 -47 43 -116z" />
    <glyph glyph-name="semicolon" unicode=";" horiz-adv-x="514" 
d="M234 287q78 -1 110 -31t33 -108q0 -78 -69 -216t-179 -270h-147q108 163 145 305l-70 275q99 45 177 45zM483 816q0 -69 -53 -117q-52 -48 -120 -48t-110 47t-42 116t52 117t120 48t110 -47q43 -47 43 -116z" />
    <glyph glyph-name="less" unicode="&#x3c;" 
d="M1047 0l-967 430v111l967 430v-164l-728 -322l728 -321v-164z" />
    <glyph glyph-name="equal" unicode="=" 
d="M1075 223h-1024v168h1024v-168zM1075 557h-1024v168h1024v-168z" />
    <glyph glyph-name="greater" unicode="&#x3e;" 
d="M1047 430l-967 -430v164l727 321l-727 322v164l967 -430v-111z" />
    <glyph glyph-name="question" unicode="?" horiz-adv-x="980" 
d="M528 141q0 -69 -52 -117t-120 -48t-110 46q-43 48 -43 116t53 117q54 48 120 48t109 -47t43 -115zM625 1487q336 0 336 -325q0 -168 -121 -294q-111 -111 -316 -245q47 -63 109 -129l-172 -115q-78 77 -125 139t-96 170q152 84 247 154t123 96q96 96 97 223q0 61 -38 96
t-108 35q-109 0 -211 -96q51 -86 72 -117l-182 -90q-74 66 -100 104t-25 83q0 119 157 215q158 96 353 96z" />
    <glyph glyph-name="at" unicode="@" horiz-adv-x="2048" 
d="M1051 786q-94 0 -165 -127t-71 -297q0 -121 51 -120q23 0 62 28q75 55 139 174q63 127 82 215l22 109q-53 18 -120 18zM1024 -362q-215 0 -406 115q-190 117 -304 311t-113 413q0 342 250 593q251 251 587 251q336 1 580 -231t244 -549q0 -244 -144 -403t-364 -158
q-125 0 -183 55q-57 55 -57 176v18l10 50q-49 -87 -88 -131q-38 -44 -114 -90t-150 -46t-128 92t-54 232q0 272 147 458t361 187q102 0 313 -61l-113 -615q-10 -68 -10 -78q0 -88 101 -88q123 0 205 111t81 274q0 250 -184 428t-448 178t-457 -194t-193 -458
q1 -265 191 -456t452 -192q145 0 287 68l68 -177q-51 -25 -70 -28q-133 -55 -297 -55z" />
    <glyph glyph-name="A" unicode="A" horiz-adv-x="1218" 
d="M791 553l-80 489l-232 -489h312zM1151 0h-270l-54 334h-454l-162 -334h-270l700 1352h236z" />
    <glyph glyph-name="B" unicode="B" horiz-adv-x="1210" 
d="M578 207q132 1 206 59t74 150t-52 128t-169 36h-164l-59 -373h164zM911 1002q0 82 -44 114t-140 31h-166l-55 -348h153q113 0 183 60q69 61 69 143zM1208 1044q0 -134 -110 -241q-41 -39 -91 -64t-153 -30q133 -4 210 -83t77 -200t-54 -217q-59 -111 -160 -160t-268 -49
h-555l215 1352h492q137 0 203 -18t116 -72q78 -84 78 -218z" />
    <glyph glyph-name="C" unicode="C" horiz-adv-x="1239" 
d="M782 207q145 0 310 76l55 -209q-133 -60 -235 -80t-201 -21q-295 0 -461 159t-166 439q0 182 86 359q78 152 209 262q217 184 528 184q162 0 247 -36t173 -99l-133 -188q-68 51 -134 75t-159 25q-223 0 -376 -163t-152 -400q0 -178 110 -281q111 -102 299 -102z" />
    <glyph glyph-name="D" unicode="D" horiz-adv-x="1456" 
d="M1176 776q0 188 -96 268t-318 80h-203l-143 -897h205q247 1 401 153t154 396zM1458 792q0 -202 -100 -382q-225 -410 -750 -410h-504l215 1352h504q187 0 309 -48t205 -155q121 -155 121 -357z" />
    <glyph glyph-name="E" unicode="E" horiz-adv-x="1103" 
d="M1159 1352l-35 -219h-567l-53 -334h463l-33 -219h-465l-57 -361h585l-26 -219h-850l213 1352h825z" />
    <glyph glyph-name="F" unicode="F" horiz-adv-x="1069" 
d="M1171 1352l-34 -219h-580l-55 -349h477l-35 -217h-477l-90 -567h-256l213 1352h837z" />
    <glyph glyph-name="G" unicode="G" horiz-adv-x="1449" 
d="M973 1157q-250 0 -424 -162t-174 -393q0 -178 125 -292t321 -113q80 0 193 36l57 371h264l-88 -555q-49 -10 -145 -35q-195 -43 -338 -43q-303 0 -484 164t-182 438q0 213 115 404q80 131 197 223q118 92 246 133t286 41t271 -28q112 -28 227 -80l-94 -207
q-37 16 -107 45q-143 53 -266 53z" />
    <glyph glyph-name="H" unicode="H" horiz-adv-x="1579" 
d="M1544 1352l-213 -1352h-258l92 580h-696l-92 -580h-256l213 1352h258l-86 -541h696l84 541h258z" />
    <glyph glyph-name="I" unicode="I" horiz-adv-x="614" 
d="M586 1352l-215 -1352h-256l213 1352h258z" />
    <glyph glyph-name="J" unicode="J" horiz-adv-x="614" 
d="M-143 -489q-100 0 -277 59l88 235l51 -18q102 -37 167 -37t118 45t78 113q35 104 61 282l185 1162h256l-209 -1325q-27 -177 -67 -267t-115 -149q-127 -100 -336 -100z" />
    <glyph glyph-name="K" unicode="K" horiz-adv-x="1169" 
d="M1307 1352l-576 -666l375 -686h-285l-352 647l-102 -647h-263l215 1352h263l-99 -617l514 617h310z" />
    <glyph glyph-name="L" unicode="L" horiz-adv-x="1013" 
d="M961 219l-29 -219h-811l213 1352h258l-180 -1133h549z" />
    <glyph glyph-name="M" unicode="M" horiz-adv-x="1798" 
d="M874 318q0 -14 -1 -21q-1 -8 -1 -14q18 59 43 104l527 965h309l-215 -1352h-244l193 1081l-45 -118l-74 -164l-434 -799h-232l-143 694q-6 22 -19 130t-18 233l-155 -1057h-232l213 1352h309l209 -965q10 -55 10 -69z" />
    <glyph glyph-name="N" unicode="N" horiz-adv-x="1554" 
d="M1507 1352l-213 -1352h-276l-395 784q-63 124 -91 297l-26 -243l-125 -838h-250l213 1352h295l408 -850q46 -107 65 -232l25 297l123 785h247z" />
    <glyph glyph-name="O" unicode="O" horiz-adv-x="1562" 
d="M1274 784q0 166 -102 272t-263 105q-219 0 -377 -175t-157 -419q0 -166 100 -272t258 -107q223 0 382 175t159 421zM1552 786q0 -340 -242 -576t-587 -237q-285 0 -456 162t-171 430q0 61 8 111q48 315 274 508q226 192 532 192t474 -159t168 -431z" />
    <glyph glyph-name="P" unicode="P" horiz-adv-x="1138" 
d="M938 961q0 172 -201 172h-178l-72 -451l31 -2q23 -2 90 -2q168 0 242 63q88 79 88 220zM1208 983q0 -246 -156 -387t-423 -141q-88 0 -174 10l-74 -465h-262l213 1352h467q195 0 302 -96t107 -273z" />
    <glyph glyph-name="Q" unicode="Q" horiz-adv-x="1562" 
d="M1274 784q0 166 -102 272t-263 105q-219 0 -377 -174t-157 -418q0 -168 100 -274t258 -107q223 0 382 176t159 420zM1270 -262q106 0 231 14l-59 -215q-279 -44 -594 4q-166 27 -291 68t-278 127l-37 20l364 232q-102 8 -166 30q-154 57 -249 207t-95 334q0 349 238 583
t592 234q290 0 458 -159t168 -431q0 -201 -98 -385q-72 -131 -165 -215t-156 -118t-183 -72l-280 -174q252 -84 600 -84z" />
    <glyph glyph-name="R" unicode="R" horiz-adv-x="1196" 
d="M928 987q0 66 -36 104t-66 47t-101 9h-168l-57 -387h166q126 0 194 59t68 168zM784 1352q218 0 320 -82t102 -264t-114 -310q-44 -50 -94 -74t-144 -47l256 -575h-291l-223 541h-131l-84 -541h-262l213 1352h452z" />
    <glyph glyph-name="S" unicode="S" horiz-adv-x="1093" 
d="M732 1149q-115 0 -182 -49t-67 -119t97 -129l200 -129q121 -78 174 -153t54 -167q0 -195 -140 -313t-357 -117q-216 0 -482 97l96 237q226 -110 371 -108q88 0 158 57t71 126q0 69 -88 128q-47 33 -189 122t-204 165q-61 76 -62 164q0 177 146 295t363 118q216 0 427 -69
l-80 -242q-191 86 -306 86z" />
    <glyph glyph-name="T" unicode="T" horiz-adv-x="1103" 
d="M1235 1352l-35 -219h-405l-179 -1133h-258l181 1133h-406l33 219h1069z" />
    <glyph glyph-name="U" unicode="U" horiz-adv-x="1433" 
d="M152 350q0 94 14 178l131 824h262l-133 -838q-8 -61 -8 -84q0 -111 63 -163t206 -52t237 78t116 223l134 836h262l-131 -824q-31 -192 -85 -290t-171 -168q-158 -96 -395 -96q-238 0 -370 98q-132 100 -132 278z" />
    <glyph glyph-name="V" unicode="V" horiz-adv-x="1193" 
d="M604 397v-4q3 21 21 47l438 912h280l-700 -1352h-213l-274 1352h280l164 -914q4 -8 4 -41z" />
    <glyph glyph-name="W" unicode="W" horiz-adv-x="1769" 
d="M1923 1352l-694 -1352h-201l-110 549l-283 -549h-186l-293 1352h268l184 -1012l242 455l-127 557h227l60 -267l131 267h229l-297 -549l117 -451l479 1000h254z" />
    <glyph glyph-name="X" unicode="X" horiz-adv-x="1171" 
d="M1307 1352l-521 -652l308 -700h-287l-207 475l-371 -475h-297l553 690l-301 662h289l184 -449l340 449h310z" />
    <glyph glyph-name="Y" unicode="Y" 
d="M1280 1352l-578 -779l-90 -573h-262l92 590l-284 762h276l187 -525l364 525h295z" />
    <glyph glyph-name="Z" unicode="Z" horiz-adv-x="1218" 
d="M1307 1352l-27 -174l-877 -959h723l-34 -219h-1086l27 174l889 959h-723l34 219h1074z" />
    <glyph glyph-name="bracketleft" unicode="[" horiz-adv-x="512" 
d="M694 1352l-28 -181h-168l-236 -1493h166l-27 -180h-413l295 1854h411z" />
    <glyph glyph-name="backslash" unicode="\" horiz-adv-x="837" 
d="M729 -502h-244l-233 1854h244z" />
    <glyph glyph-name="bracketright" unicode="]" horiz-adv-x="512" 
d="M541 1352l-295 -1854h-412l29 180h168l235 1493h-166l29 181h412z" />
    <glyph glyph-name="asciicircum" unicode="^" horiz-adv-x="1069" 
d="M1016 0h-168l-322 721l-323 -721h-154l426 967h115z" />
    <glyph glyph-name="underscore" unicode="_" horiz-adv-x="1024" 
d="M967 0l-27 -168h-1024l27 168h1024z" />
    <glyph glyph-name="grave" unicode="`" horiz-adv-x="784" 
d="M817 1059h-164l-178 336h203z" />
    <glyph glyph-name="a" unicode="a" horiz-adv-x="1058" 
d="M653 805q-125 0 -220 -139t-95 -324q0 -137 61 -137t166 131q125 162 150 326l20 133q-49 10 -82 10zM277 -27q-93 0 -146 84t-53 217q0 199 80 370t204 252t306 81q104 0 333 -37l-145 -940h-219l43 270q-61 -86 -99 -127t-96 -84q-115 -86 -208 -86z" />
    <glyph glyph-name="b" unicode="b" horiz-adv-x="1052" 
d="M739 662q0 50 -13 72t-44 22q-72 0 -186 -144q-66 -84 -84 -134t-36 -129q-19 -79 -22 -85l-16 -104q72 -18 98 -19q121 0 212 157t91 364zM780 115q-78 -82 -150 -112t-166 -30q-93 -1 -214 11t-180 16l233 1481l248 26l-84 -540l-16 -76q-23 -104 -43 -191
q47 80 81 120q35 40 95 85q100 76 209 76q200 0 200 -322t-213 -544z" />
    <glyph glyph-name="c" unicode="c" horiz-adv-x="856" 
d="M596 795q-115 0 -193 -126t-77 -313q0 -76 24 -118t66 -43q72 0 297 161l94 -145l-64 -45q-137 -98 -231 -140t-211 -42q-223 0 -223 321q0 289 152 483t380 193q70 -1 126 -13t149 -53l-101 -188q-123 68 -188 68z" />
    <glyph glyph-name="d" unicode="d" horiz-adv-x="1081" 
d="M642 805q-60 0 -118 -44t-97 -114q-40 -70 -69 -171q-28 -101 -28 -187t56 -86t146 86t142 178q53 92 65 168l19 119q-56 51 -116 51zM286 -35q-208 0 -208 293t155 510q156 217 371 217q74 0 182 -45l91 541l247 26l-237 -1507h-232l43 283q-30 -55 -62 -101t-104 -104
q-140 -113 -246 -113z" />
    <glyph glyph-name="e" unicode="e" horiz-adv-x="909" 
d="M649 727q0 88 -82 88q-152 0 -252 -326l322 181q12 32 12 57zM885 782q0 -152 -170 -241l-414 -219q10 -61 27 -86q55 -86 209 -23q61 25 219 143l94 -145q-41 -33 -122 -91t-120 -79q-125 -68 -258 -68q-272 0 -272 338q0 297 149 484q150 186 387 186q271 0 271 -199z
" />
    <glyph glyph-name="f" unicode="f" horiz-adv-x="575" 
d="M-66 -500q-76 0 -145 14q-68 14 -147 62l94 193q112 -59 184 -59t125 68q53 69 70 183l123 807h-193l27 172l198 12l29 181q27 174 140 273q114 99 284 99q51 0 109 -7t200 -60l-69 -189q-281 122 -376 4q-48 -59 -69 -196l-16 -105h190l-28 -184h-193l-127 -819
q-27 -176 -106 -289q-48 -72 -138 -116t-166 -44z" />
    <glyph glyph-name="g" unicode="g" horiz-adv-x="995" 
d="M668 -147q0 49 -32 66t-108 18h-155q-113 -106 -113 -170q0 -33 45 -56t131 -23t159 58t73 107zM365 584q0 -166 108 -166q53 0 107 78q51 78 51 159q0 168 -106 168q-52 -1 -106 -79t-54 -160zM885 664q0 -174 -119 -295t-289 -121q-43 0 -104 10q-66 -74 -66 -106
q0 -12 13 -24t96 -11h243q119 -1 187 -61t67 -167q-1 -153 -161 -269t-377 -116q-155 0 -265 66t-110 158q0 129 199 247q-129 12 -129 99q0 72 170 235q-55 47 -80 82q-47 66 -47 164q0 182 124 306t306 124q78 0 172 -31h180l143 13l-41 -181h-141q29 -59 29 -122z" />
    <glyph glyph-name="h" unicode="h" horiz-adv-x="1087" 
d="M1008 780q0 -37 -2 -53l-113 -727h-246l94 608q8 53 9 80q0 63 -43 64q-73 0 -165 -100t-115 -146q-49 -102 -77 -268l-37 -238h-243l233 1481l248 26l-90 -555q-6 -41 -17 -84q-16 -94 -36 -168q188 279 413 279q98 0 143 -47q44 -48 44 -152z" />
    <glyph glyph-name="i" unicode="i" horiz-adv-x="526" 
d="M479 967l-149 -967h-244l145 940zM375 1141q-49 0 -80 43t-31 102q0 8 4 25q12 59 56 96t92 37q49 0 79 -44q29 -45 29 -109t-50 -107t-99 -43z" />
    <glyph glyph-name="j" unicode="j" horiz-adv-x="530" 
d="M-127 -485q-90 0 -256 73l84 205q113 -65 189 -65t127 86q50 86 79 276l131 850l248 27l-145 -955q-31 -209 -123 -329q-53 -74 -149 -121t-185 -47zM526 1294q0 -4 -4 -20q-10 -59 -53 -96t-93 -37t-80 43t-30 108t52 108q52 44 99 44q48 0 79 -44q30 -45 30 -106z" />
    <glyph glyph-name="k" unicode="k" horiz-adv-x="954" 
d="M1014 952q-86 -102 -193 -209l-86 -84q-61 -59 -147 -131q91 -202 305 -528h-283q-76 127 -112 199t-95 225l-26 -14l-64 -410h-243l233 1481l248 26l-139 -878l61 59l88 80l170 184h283z" />
    <glyph glyph-name="l" unicode="l" horiz-adv-x="505" 
d="M551 1507l-238 -1507h-243l233 1481z" />
    <glyph glyph-name="m" unicode="m" horiz-adv-x="1683" 
d="M1606 780q0 -20 -4 -53l-113 -727h-244l92 608q8 53 9 80q0 63 -43 64q-75 0 -167 -102t-130 -186q-38 -85 -60 -226l-37 -238h-243l94 608q6 39 6 91t-41 53q-76 0 -164 -98q-87 -98 -111 -142q-57 -110 -83 -274l-37 -238h-244l145 940l248 27l-53 -267
q186 279 412 279q188 0 188 -178q0 -8 -4 -74q98 133 192 193t198 59q104 0 149 -47q45 -48 45 -152z" />
    <glyph glyph-name="n" unicode="n" horiz-adv-x="1105" 
d="M1026 780q0 -20 -4 -53l-113 -727h-243l94 608q6 39 6 91t-41 53q-76 0 -164 -98q-87 -98 -111 -142q-57 -110 -83 -274l-37 -238h-244l145 940l248 27l-53 -267q186 279 412 279q98 1 143 -47t45 -152z" />
    <glyph glyph-name="o" unicode="o" horiz-adv-x="1021" 
d="M707 570q0 104 -32 162t-81 58t-100 -41q-51 -42 -91 -114q-74 -135 -73 -277q0 -90 34 -148t81 -58t92 36q78 66 124 172t46 210zM961 584q0 -241 -150 -430q-80 -96 -170 -138t-217 -43q-168 -1 -257 99t-89 286q0 272 150 447q151 174 388 174q168 0 256 -100t89 -295
z" />
    <glyph glyph-name="p" unicode="p" horiz-adv-x="1077" 
d="M772 662q0 87 -53 88q-63 0 -164 -101q-154 -154 -180 -332l-19 -118q62 -51 112 -51t109 42q110 81 166 284q29 101 29 188zM1026 700q0 -297 -156 -514t-368 -217q-96 0 -174 43l-78 -489h-244l219 1417l250 27l-51 -267q70 121 187 204q118 83 214 83q97 0 149 -76
t52 -211z" />
    <glyph glyph-name="q" unicode="q" horiz-adv-x="1060" 
d="M649 811q-204 0 -283 -282q-34 -120 -34 -240q0 -94 69 -94q74 0 174 106q59 63 95 163t51 185l20 144q-47 18 -92 18zM274 -29q-196 0 -196 318t211 549q77 82 151 112t180 29t223 -13q118 -12 171 -14l-228 -1441h-243l75 477l31 151l17 72q-174 -240 -392 -240z" />
    <glyph glyph-name="r" unicode="r" horiz-adv-x="706" 
d="M651 674q-51 0 -119 -70t-109 -167q-40 -97 -67 -265l-26 -172h-244l145 940l215 27l-38 -285q38 66 66 113t86 113t138 65q37 0 86 -33l-94 -278q-20 12 -39 12z" />
    <glyph glyph-name="s" unicode="s" horiz-adv-x="741" 
d="M290 174q134 0 134 88q0 42 -70 105q-40 36 -89 78q-50 42 -105 106q-53 70 -54 151q0 133 94 206t250 73t293 -55l-69 -199q-117 61 -203 61q-125 0 -125 -71q0 -23 12 -41q20 -35 142 -133q106 -91 145 -149t39 -134q0 -131 -90 -209t-238 -78t-344 54l68 198
q142 -51 210 -51z" />
    <glyph glyph-name="t" unicode="t" horiz-adv-x="716" 
d="M137 86q0 68 17 166l79 516h-155l26 172l158 12l41 265l236 26l-45 -291h204l-26 -184h-207l-82 -530q114 43 209 106l82 -145q-60 -43 -110 -78t-152 -82t-250 -66q-25 45 -25 113z" />
    <glyph glyph-name="u" unicode="u" horiz-adv-x="1099" 
d="M111 164q0 41 4 61l110 715l248 27l-96 -623q-8 -55 -8 -78q0 -66 43 -65q74 0 167 101t132 187t59 226l33 225l250 27l-150 -967h-231l45 283q-43 -77 -69 -115t-93 -96q-117 -98 -256 -99q-188 0 -188 191z" />
    <glyph glyph-name="v" unicode="v" horiz-adv-x="913" 
d="M909 809q1 -129 -65 -249t-232 -301t-284 -286h-189v967l232 27v-715q143 190 190 256q101 141 101 276q0 74 -25 142l264 41q8 -88 8 -158z" />
    <glyph glyph-name="w" unicode="w" horiz-adv-x="1411" 
d="M1407 811q-1 -133 -65 -251t-281 -355q-119 -127 -236 -232h-184v394q-43 -63 -109 -150q-84 -119 -221 -244h-172v967l228 27v-715q117 130 239 317l35 54v317l231 27v-715q210 262 260 389q50 126 7 285l258 41q10 -88 10 -156z" />
    <glyph glyph-name="x" unicode="x" horiz-adv-x="854" 
d="M938 952l-391 -489l215 -463h-262l-109 262l-203 -262h-266l385 481l-211 459l248 27l115 -293l205 278h274z" />
    <glyph glyph-name="y" unicode="y" horiz-adv-x="899" 
d="M645 799q0 63 -20 127l252 41q16 -91 16 -192t-40 -213t-84 -182q-44 -69 -143 -187t-118 -193l-115 -477h-243l110 450q16 65 16 103t-6 57l-209 807l248 27l144 -662q192 255 192 494z" />
    <glyph glyph-name="z" unicode="z" horiz-adv-x="901" 
d="M891 952l-21 -131l-495 -622h450l-30 -199h-772l20 133l496 621h-414l31 198h735z" />
    <glyph glyph-name="braceleft" unicode="{" horiz-adv-x="837" 
d="M901 1364q-156 0 -188 -205l-62 -385q-20 -123 -71 -188q-29 -39 -58 -51t-102 -23q63 -10 80 -16q76 -33 75 -152q0 -45 -6 -94l-59 -379q-8 -57 -8 -76q0 -57 36 -93t93 -36h78l-33 -190h-168q-119 0 -174 50t-55 157q0 35 6 67l67 430q6 42 6 98t-32 101
q-33 45 -90 45h-76l26 168h76q154 0 193 231l67 428q43 272 309 273h168l-22 -160h-76z" />
    <glyph glyph-name="bar" unicode="|" horiz-adv-x="512" 
d="M541 1491l-314 -1983h-227l313 1983h228z" />
    <glyph glyph-name="braceright" unicode="}" horiz-adv-x="837" 
d="M623 408q-156 0 -193 -232l-68 -426q-43 -274 -309 -274h-168l23 159h76q156 0 188 207l61 385q21 121 61 173t68 66q28 13 103 23q-61 6 -80 17q-78 31 -78 151q0 31 8 93l60 380q8 57 8 74q0 57 -36 94t-93 37h-78l33 189h168q119 0 174 -49t55 -156q0 -33 -6 -68
l-68 -430q-8 -57 -8 -78q0 -75 34 -121t89 -47h78l-27 -167h-75z" />
    <glyph glyph-name="asciitilde" unicode="~" horiz-adv-x="1114" 
d="M762 295q-62 0 -116 15q-54 14 -143 58t-155 44q-129 0 -256 -99l-84 142q163 135 324 135q76 0 166 -41l102 -45q86 -37 148 -37t121 20q58 20 141 78l92 -145q-174 -125 -340 -125z" />
    <glyph glyph-name="exclamdown" unicode="&#xa1;" horiz-adv-x="540" 
d="M371 592l-150 -1016l-264 -51l182 1067h232zM308 1030q68 0 110 -47t43 -116q0 -69 -52 -117q-53 -48 -119 -48t-110 48t-43 116q0 68 52 116q51 48 119 48z" />
    <glyph glyph-name="cent" unicode="&#xa2;" horiz-adv-x="802" 
d="M307 396q-1 -114 19 -154q20 -39 67 -45l111 589q-92 -56 -144 -166t-53 -224zM272 -16q-108 0 -160 78t-53 245q0 268 148 465q65 92 143 140t191 65l22 119h113l-23 -121q107 -15 213 -62l-106 -194q-70 53 -142 69l-110 -569q96 55 188 131l95 -143q-98 -78 -169 -121
t-153 -72l-39 -194h-111l33 170q-55 -6 -80 -6z" />
    <glyph glyph-name="sterling" unicode="&#xa3;" horiz-adv-x="1179" 
d="M1048 1303q-66 0 -108 -67q-41 -67 -109 -296l-167 -567h335l-59 -180h-336l-57 -232q-23 -88 -82 -192q45 4 50 4t56 -5t72 -12l178 -45q23 -6 58 -6q74 0 73 80q0 23 -6 49l-12 49l174 39q33 -86 33 -149q0 -279 -332 -279q-74 0 -158 19l-141 32q-155 35 -299 2
l-145 -34l-76 -15v193q98 31 147 55q43 25 76 57q57 61 98 209l49 181h-219l56 155l211 25l196 696q41 143 79 217q109 213 378 213q90 0 172 -36t168 -175l-184 -117q-47 86 -75 109t-94 23z" />
    <glyph glyph-name="yen" unicode="&#xa5;" 
d="M1282 1352l-494 -664l236 2l-20 -131h-299l-21 -141h297l-20 -137h-299l-46 -281h-258l45 281h-299l23 137h297l22 141h-296l20 131l240 -2l-248 664h282l187 -529l368 529h283z" />
    <glyph glyph-name="brokenbar" unicode="&#xa6;" horiz-adv-x="512" 
d="M426 367l-135 -859h-228l136 859h227zM604 1491l-135 -858h-227l135 858h227z" />
    <glyph glyph-name="section" unicode="&#xa7;" horiz-adv-x="1062" 
d="M928 211q0 -379 -142 -565q-143 -193 -383 -193q-143 0 -221 34t-155 138l163 105q33 -63 75 -88q43 -25 135 -25t162 76t98 224q30 148 30 427l-8 498q0 176 23 280l135 29q-10 -63 -10 -125t48 -350q50 -287 50 -465zM381 -80q0 60 -31 244q-66 369 -65 567
q0 381 141 569t383 189q145 0 220 -32t155 -138l-162 -107q-33 64 -76 90t-119 25q-215 0 -276 -301q-31 -147 -31 -424l10 -500q0 -168 -24 -286l-133 -23q8 67 8 127z" />
    <glyph glyph-name="dieresis" unicode="&#xa8;" horiz-adv-x="1042" 
d="M444 1280q48 0 78 -35t31 -83q0 -48 -38 -84t-87 -36t-80 35t-31 83t39 84q40 36 88 36zM881 1162q0 -48 -38 -83t-87 -35t-79 34t-30 83t38 84t86 35t79 -35t31 -83z" />
    <glyph glyph-name="copyright" unicode="&#xa9;" horiz-adv-x="2066" 
d="M1108 788q-140 0 -234 -104t-94 -262q0 -223 211 -223q57 0 97 10t143 63l80 -172q-31 -16 -68 -34q-127 -57 -272 -58q-201 0 -321 110t-120 292q0 246 167 414t409 169q90 0 160 -22t166 -90l-123 -154q-104 61 -201 61zM1671 500q0 268 -189 458q-188 190 -458 190
t-460 -190t-189 -458q0 -268 189 -458q188 -190 458 -192q270 0 460 191q189 191 189 459zM1864 500q0 -348 -247 -594t-595 -246t-594 246t-246 594t246 594t594 246t595 -246t247 -594z" />
    <glyph glyph-name="ordfeminine" unicode="&#xaa;" horiz-adv-x="741" 
d="M457 1266q-81 0 -143 -88t-62 -186t29 -99q37 0 113 94t91 201l13 74q-16 4 -41 4zM188 709q-70 0 -110 61t-39 176q0 115 57 233t156 181q86 51 188 51t279 -27l-107 -657h-184l23 137q-51 -63 -122 -109t-141 -46z" />
    <glyph glyph-name="guillemotleft" unicode="&#xab;" horiz-adv-x="1146" 
d="M627 862l-39 -244l-232 -155l183 -154l-39 -246l-439 400zM1116 862l-39 -244l-231 -155l182 -154l-39 -246l-440 400z" />
    <glyph glyph-name="logicalnot" unicode="&#xac;" 
d="M1075 223h-168v334h-856v168h1024v-502z" />
    <glyph glyph-name="registered" unicode="&#xae;" horiz-adv-x="2004" 
d="M1001 528q79 0 137 49t58 113t-36 89q-36 26 -113 26h-105l-43 -277h102zM1436 737q0 -141 -76 -234t-207 -110l166 -381h-248l-153 373h-44l-57 -373h-223l154 967h352q336 0 336 -242zM1647 498q-1 268 -191 458t-458 190t-459 -190t-191 -458t190 -458t459 -192
q268 0 459 191t191 459zM1837 498q0 -348 -246 -595t-594 -247t-594 247t-245 595q0 348 245 594q246 246 594 246t594 -246t246 -594z" />
    <glyph glyph-name="macron" unicode="&#xaf;" horiz-adv-x="831" 
d="M1090 1233l-41 -129h-560l41 129h560z" />
    <glyph glyph-name="degree" unicode="&#xb0;" horiz-adv-x="681" 
d="M643 1123q0 54 -34 91t-87 37t-95 -39t-42 -92t34 -91t87 -38t95 39t42 93zM534 1372q104 0 166 -70q64 -70 64 -174t-84 -181t-188 -77t-165 71q-63 71 -63 174t83 180t187 77z" />
    <glyph glyph-name="plusminus" unicode="&#xb1;" 
d="M1049 0h-971v168h971v-168zM1049 532h-402v-319h-168v319h-401v168h401v320h168v-320h402v-168z" />
    <glyph glyph-name="twosuperior" unicode="&#xb2;" horiz-adv-x="614" 
d="M631 1233q0 -154 -160 -270l-117 -86h244l-27 -150h-571l16 100l209 150q195 141 195 233q0 47 -60 47t-200 -88l-97 148q195 104 347 104q106 0 164 -48t57 -140z" />
    <glyph glyph-name="threesuperior" unicode="&#xb3;" horiz-adv-x="587" 
d="M575 1227q0 -162 -153 -236q131 -20 131 -183q0 -162 -121 -272t-289 -110q-27 0 -84 8q-66 14 -137 47l76 150q31 -16 51 -27q49 -16 94 -16q80 0 140 62q59 62 59 148t-111 85h-100l33 133q86 25 142 78t56 104q0 23 -17 40t-38 17q-59 0 -176 -61l-68 129
q158 94 306 94q96 0 151 -50t55 -140z" />
    <glyph glyph-name="acute" unicode="&#xb4;" horiz-adv-x="784" 
d="M639 1395l-285 -336h-207l248 336h244z" />
    <glyph glyph-name="mu" unicode="&#xb5;" horiz-adv-x="1099" 
d="M369 266q0 -66 43 -65q74 0 167 101t132 187t59 226l33 225l250 27l-150 -967h-231l45 283q-43 -77 -69 -115t-93 -96q-111 -92 -240 -99l-59 -397l-264 -51l153 901l80 514l248 27l-96 -623q-8 -55 -8 -78z" />
    <glyph glyph-name="paragraph" unicode="&#xb6;" horiz-adv-x="1318" 
d="M1085 1309h-153l-258 -1598q72 47 108 101q82 125 117 340zM1352 1309h-66l-205 -1282q-86 -539 -616 -539q-84 0 -170 16t-223 97l98 168q139 -92 236 -93q6 0 63 5l129 821l-63 2q-170 6 -288 124t-118 274q0 270 219 470q158 135 371 135h661l31 -2q56 -4 119 -24
l-66 -199q-55 27 -112 27z" />
    <glyph glyph-name="periodcentered" unicode="&#xb7;" horiz-adv-x="512" 
d="M436 482q0 -70 -53 -118t-121 -48t-109 48q-42 48 -42 116t52 116q51 49 119 49t111 -47t43 -116z" />
    <glyph glyph-name="cedilla" unicode="&#xb8;" horiz-adv-x="909" 
d="M684 -300q0 -79 -55 -131t-131 -52t-211 45l51 104q104 -45 148 -45t68 22q24 23 24 61t-31 57t-105 20h-65l117 192h102l-64 -114q72 0 112 -40t40 -119z" />
    <glyph glyph-name="onesuperior" unicode="&#xb9;" horiz-adv-x="522" 
d="M510 1421l-115 -694h-202l77 475l-172 -65l-51 157l361 127h102z" />
    <glyph glyph-name="ordmasculine" unicode="&#xba;" horiz-adv-x="741" 
d="M500 1122q0 66 -20 102q-20 34 -46 33q-59 0 -119 -98q-49 -87 -49 -161t20 -107t48 -33t66 31t69 99t31 134zM709 1133q0 -84 -30 -163t-79 -134q-106 -127 -283 -127q-123 -1 -191 71t-67 201q0 188 110 310t284 122q125 -1 191 -73t65 -207z" />
    <glyph glyph-name="guillemotright" unicode="&#xbb;" horiz-adv-x="1146" 
d="M614 463l-565 -400l39 246l229 154l-180 155l39 244zM1104 463l-565 -400l39 246l229 154l-180 155l37 244z" />
    <glyph glyph-name="onequarter" unicode="&#xbc;" horiz-adv-x="1740" 
d="M1235 365q-23 -33 -94 -123t-76 -92h135l33 196zM1483 150l-25 -152h-88l-47 -289h-195l48 289h-369l12 82l496 620h168l-88 -550h88zM1481 1403l-1157 -1493h-195l1159 1493h193zM623 1421l-115 -694h-201l76 475l-172 -65l-51 157l360 127h103z" />
    <glyph glyph-name="onehalf" unicode="&#xbd;" horiz-adv-x="1740" 
d="M1481 1403l-1157 -1493h-195l1159 1493h193zM623 1421l-115 -694h-201l76 475l-172 -65l-51 157l360 127h103zM1612 504q0 -152 -160 -268l-117 -86h244l-25 -150h-571l16 100l209 150q193 136 193 231q-1 47 -61 47t-197 -86l-96 148q199 104 346 104q103 0 161 -49
t58 -141z" />
    <glyph glyph-name="threequarters" unicode="&#xbe;" horiz-adv-x="1740" 
d="M1337 365q-43 -62 -106 -138q-62 -76 -64 -77h136l32 196zM719 1227q0 -162 -154 -236q131 -20 131 -183q0 -162 -121 -272t-288 -110q-27 0 -84 8q-66 14 -137 47l75 150q31 -16 52 -27q49 -16 94 -16q80 0 139 62t59 148t-110 85h-101l33 133q86 25 143 78
q56 53 56 104q0 23 -18 40t-37 17q-59 0 -177 -61l-67 129q158 94 305 94q96 0 152 -50t55 -140zM1585 150l-24 -152h-88l-48 -289h-194l47 289h-369l13 82l495 620h168l-88 -550h88zM1624 1403l-1157 -1493h-195l1160 1493h192z" />
    <glyph glyph-name="questiondown" unicode="&#xbf;" horiz-adv-x="980" 
d="M797 -170q0 -119 -157 -215t-336 -96q-351 0 -351 307q0 195 121 311q112 112 313 246q-45 66 -108 129l174 117q88 -88 122 -137q47 -59 97 -173q-268 -157 -368 -251q-99 -94 -99 -222q0 -63 39 -98t108 -35q106 0 211 99q-27 43 -71 114l180 90q74 -61 100 -100
t25 -86zM556 1030q68 0 110 -47t43 -116q-1 -69 -53 -117t-120 -48t-110 48q-43 48 -43 116t53 116q52 48 120 48z" />
    <glyph glyph-name="Agrave" unicode="&#xc0;" horiz-adv-x="1218" 
d="M791 553l-80 489l-232 -489h312zM1151 0h-270l-54 334h-454l-162 -334h-270l700 1352h236zM848 1413h-191l-194 242h229z" />
    <glyph glyph-name="Aacute" unicode="&#xc1;" horiz-adv-x="1218" 
d="M791 553l-80 489l-232 -489h312zM1151 0h-270l-54 334h-454l-162 -334h-270l700 1352h236zM1098 1655l-271 -242h-190l231 242h230z" />
    <glyph glyph-name="Acircumflex" unicode="&#xc2;" horiz-adv-x="1218" 
d="M791 553l-80 489l-232 -489h312zM1151 0h-270l-54 334h-454l-162 -334h-270l700 1352h236zM1063 1415h-178l-113 133l-154 -133h-178l269 240h161z" />
    <glyph glyph-name="Atilde" unicode="&#xc3;" horiz-adv-x="1218" 
d="M791 553l-80 489l-232 -489h312zM1151 0h-270l-54 334h-454l-162 -334h-270l700 1352h236zM706 1438q-80 47 -130 47q-51 0 -160 -64l-51 117q91 53 151 78t117 24l22 -2q59 -6 164 -75q39 -25 84 -25t79 14t110 62l51 -109q-146 -116 -283 -114q-74 0 -154 47z" />
    <glyph glyph-name="Adieresis" unicode="&#xc4;" horiz-adv-x="1218" 
d="M791 553l-80 489l-232 -489h312zM1151 0h-270l-54 334h-454l-162 -334h-270l700 1352h236zM717 1525q0 -46 -37 -80t-83 -34t-75 33q-28 33 -28 79t35 80q36 33 82 33t76 -32t30 -79zM829 1518q0 48 36 80t82 32t76 -32t30 -77q0 -46 -37 -80t-83 -34t-75 32t-29 79z" />
    <glyph glyph-name="Aring" unicode="&#xc5;" horiz-adv-x="1218" 
d="M791 553l-80 489l-232 -489h312zM858 1577q0 35 -22 59t-58 25q-34 0 -62 -26q-28 -27 -28 -61t22 -58t58 -25t62 25q28 26 28 61zM1151 0h-270l-54 334h-454l-162 -334h-270l700 1352h236zM971 1578q0 -83 -65 -141q-64 -59 -146 -59t-133 56t-52 139q-1 82 63 141
q64 60 146 60t135 -56q52 -56 52 -140z" />
    <glyph glyph-name="AE" unicode="&#xc6;" horiz-adv-x="1626" 
d="M868 1159l-90 -180l-291 -465h271l59 387zM1683 1352l-34 -219h-549l-51 -334h444l-35 -219h-448l-52 -361h566l-29 -219h-821l49 297h-373l-188 -297h-264l858 1352h927z" />
    <glyph glyph-name="Ccedilla" unicode="&#xc7;" horiz-adv-x="1239" 
d="M778 215q135 0 322 68l12 -226q-106 -45 -186 -61t-207 -23l-84 -116q143 -6 143 -133q0 -90 -72 -158t-162 -68q-91 0 -218 53l59 111q80 -39 132 -39t78 27q26 28 26 66q-1 38 -19 50t-76 13h-92l156 203q-137 20 -208 54t-142 109q-156 162 -156 428q0 180 86 357
q78 152 209 262q217 184 530 184q258 0 418 -135l-125 -197q-113 92 -295 93q-225 0 -379 -159t-153 -392q0 -170 108 -271q109 -100 295 -100z" />
    <glyph glyph-name="Egrave" unicode="&#xc8;" horiz-adv-x="1103" 
d="M1159 1352l-35 -219h-567l-53 -334h463l-33 -219h-465l-57 -361h585l-26 -219h-850l213 1352h825zM889 1413h-191l-192 242h227z" />
    <glyph glyph-name="Eacute" unicode="&#xc9;" horiz-adv-x="1103" 
d="M1159 1352l-35 -219h-567l-53 -334h463l-33 -219h-465l-57 -361h585l-26 -219h-850l213 1352h825zM1106 1655l-268 -242h-191l232 242h227z" />
    <glyph glyph-name="Ecircumflex" unicode="&#xca;" horiz-adv-x="1103" 
d="M1159 1352l-35 -219h-567l-53 -334h463l-33 -219h-465l-57 -361h585l-26 -219h-850l213 1352h825zM1104 1415h-176l-113 133l-153 -133h-179l269 240h161z" />
    <glyph glyph-name="Edieresis" unicode="&#xcb;" horiz-adv-x="1103" 
d="M1159 1352l-35 -219h-567l-53 -334h463l-33 -219h-465l-57 -361h585l-26 -219h-850l213 1352h825zM698 1525q0 -46 -36 -80t-82 -34t-76 33t-29 79q0 46 36 80q36 33 82 33t76 -32q29 -33 29 -79zM951 1630q46 0 76 -32t30 -77q0 -46 -37 -80t-83 -34t-75 32t-28 79
q0 48 36 80t81 32z" />
    <glyph glyph-name="Igrave" unicode="&#xcc;" horiz-adv-x="614" 
d="M586 1352l-215 -1352h-256l213 1352h258zM612 1413h-190l-193 242h228z" />
    <glyph glyph-name="Iacute" unicode="&#xcd;" horiz-adv-x="614" 
d="M586 1352l-215 -1352h-256l213 1352h258zM772 1655l-270 -242h-191l232 242h229z" />
    <glyph glyph-name="Icircumflex" unicode="&#xce;" horiz-adv-x="614" 
d="M586 1352l-215 -1352h-256l213 1352h258zM782 1415h-176l-112 133l-154 -133h-178l268 240h162z" />
    <glyph glyph-name="Idieresis" unicode="&#xcf;" horiz-adv-x="614" 
d="M586 1352l-215 -1352h-256l213 1352h258zM424 1529q0 -46 -36 -80t-82 -34t-75 32t-28 79q0 47 36 80q36 32 82 32q47 0 75 -32t28 -77zM760 1524q0 -47 -36 -80t-82 -33t-76 33t-30 79t36 79q36 32 83 32t76 -32t29 -78z" />
    <glyph glyph-name="Eth" unicode="&#xd0;" horiz-adv-x="1456" 
d="M825 1124h-204l-54 -331h301l-26 -177h-301l-62 -389h205q229 0 372 117q142 117 177 334q18 115 -7 214q-26 99 -89 152q-96 80 -312 80zM672 0h-500l98 616h-223l27 177h223l90 559h502q193 0 313 -46t203 -153q151 -192 107 -473q-44 -280 -262 -480t-578 -200z" />
    <glyph glyph-name="Ntilde" unicode="&#xd1;" horiz-adv-x="1554" 
d="M1507 1352l-213 -1352h-276l-395 784q-63 124 -91 297l-26 -243l-125 -838h-250l213 1352h295l408 -850q46 -107 65 -232l25 297l123 785h247zM878 1440q-80 47 -130 47q-51 0 -160 -64l-51 117q91 53 151 78t117 24l22 -2q59 -6 164 -75q39 -25 84 -25t79 14t110 62
l51 -109q-146 -116 -283 -114q-74 0 -154 47z" />
    <glyph glyph-name="Ograve" unicode="&#xd2;" horiz-adv-x="1562" 
d="M1274 784q0 166 -102 272t-263 105q-219 0 -377 -175t-157 -419q0 -166 100 -272t258 -107q223 0 382 175t159 421zM1552 786q0 -340 -242 -576t-587 -237q-285 0 -456 162t-171 430q0 61 8 111q48 315 274 508q226 192 532 192t474 -159t168 -431zM1063 1413h-191
l-192 242h227z" />
    <glyph glyph-name="Oacute" unicode="&#xd3;" horiz-adv-x="1562" 
d="M1274 784q0 166 -102 272t-263 105q-219 0 -377 -175t-157 -419q0 -166 100 -272t258 -107q223 0 382 175t159 421zM1552 786q0 -340 -242 -576t-587 -237q-285 0 -456 162t-171 430q0 61 8 111q48 315 274 508q226 192 532 192t474 -159t168 -431zM1260 1655l-271 -242
h-190l231 242h230z" />
    <glyph glyph-name="Ocircumflex" unicode="&#xd4;" horiz-adv-x="1562" 
d="M1274 784q0 166 -102 272t-263 105q-219 0 -377 -175t-157 -419q0 -166 100 -272t258 -107q223 0 382 175t159 421zM1552 786q0 -340 -242 -576t-587 -237q-285 0 -456 162t-171 430q0 61 8 111q48 315 274 508q226 192 532 192t474 -159t168 -431zM1249 1415h-178
l-113 133l-153 -133h-178l268 240h162z" />
    <glyph glyph-name="Otilde" unicode="&#xd5;" horiz-adv-x="1562" 
d="M1274 784q0 166 -102 272t-263 105q-219 0 -377 -175t-157 -419q0 -166 100 -272t258 -107q223 0 382 175t159 421zM1552 786q0 -340 -242 -576t-587 -237q-285 0 -456 162t-171 430q0 61 8 111q48 315 274 508q226 192 532 192t474 -159t168 -431zM1061 1427
q-73 -1 -153 47t-130 48t-131 -45q-8 -6 -31 -19l-51 117q91 53 151 78t118 24l22 -2q59 -6 164 -75q39 -25 84 -25t79 14t109 62l51 -109q-144 -115 -282 -115z" />
    <glyph glyph-name="Odieresis" unicode="&#xd6;" horiz-adv-x="1562" 
d="M1274 784q0 166 -102 272t-263 105q-219 0 -377 -175t-157 -419q0 -166 100 -272t258 -107q223 0 382 175t159 421zM1552 786q0 -340 -242 -576t-587 -237q-285 0 -456 162t-171 430q0 61 8 111q48 315 274 508q226 192 532 192t474 -159t168 -431zM610 1521q0 47 36 79
t82 32t76 -32t30 -77q0 -46 -37 -80t-83 -34t-75 33t-29 79zM1311 1523q0 -46 -36 -80t-82 -34t-76 33t-30 79t36 80q36 33 82 33t76 -32t30 -79z" />
    <glyph glyph-name="multiply" unicode="&#xd7;" 
d="M1063 82l-119 -119l-381 381l-381 -381l-119 119l381 381l-381 381l119 119l381 -381l381 381l119 -119l-381 -381z" />
    <glyph glyph-name="Oslash" unicode="&#xd8;" horiz-adv-x="1562" 
d="M1274 784q0 78 -25 146l-762 -639q109 -92 250 -92q221 -1 379 171t158 414zM913 1153q-223 0 -381 -172t-157 -414q0 -88 24 -147l762 637q-104 96 -248 96zM1552 788q0 -340 -240 -578t-587 -237q-252 0 -444 150l-168 -148l-105 115l174 143q-86 164 -86 326
q0 349 238 583t590 234q285 0 444 -145l158 133l106 -113l-166 -139q86 -139 86 -324z" />
    <glyph glyph-name="Ugrave" unicode="&#xd9;" horiz-adv-x="1433" 
d="M152 350q0 94 14 178l131 824h262l-133 -838q-8 -61 -8 -84q0 -111 63 -163t206 -52t237 78t116 223l134 836h262l-131 -824q-31 -192 -85 -290t-171 -168q-158 -96 -395 -96q-238 0 -370 98q-132 100 -132 278zM999 1413h-190l-195 242h230z" />
    <glyph glyph-name="Uacute" unicode="&#xda;" horiz-adv-x="1433" 
d="M152 350q0 94 14 178l131 824h262l-133 -838q-8 -61 -8 -84q0 -111 63 -163t206 -52t237 78t116 223l134 836h262l-131 -824q-31 -192 -85 -290t-171 -168q-158 -96 -395 -96q-238 0 -370 98q-132 100 -132 278zM1204 1655l-270 -242h-191l232 242h229z" />
    <glyph glyph-name="Ucircumflex" unicode="&#xdb;" horiz-adv-x="1433" 
d="M152 350q0 94 14 178l131 824h262l-133 -838q-8 -61 -8 -84q0 -111 63 -163t206 -52t237 78t116 223l134 836h262l-131 -824q-31 -192 -85 -290t-171 -168q-158 -96 -395 -96q-238 0 -370 98q-132 100 -132 278zM1192 1417h-176l-113 133l-153 -133h-179l267 240h163z
" />
    <glyph glyph-name="Udieresis" unicode="&#xdc;" horiz-adv-x="1433" 
d="M152 350q0 94 14 178l131 824h262l-133 -838q-8 -61 -8 -84q0 -111 63 -163t206 -52t237 78t116 223l134 836h262l-131 -824q-31 -192 -85 -290t-171 -168q-158 -96 -395 -96q-238 0 -370 98q-132 100 -132 278zM770 1525q0 -46 -37 -80t-82 -34t-75 33t-29 79
q0 46 36 80q36 33 82 33q45 0 75 -32t30 -79zM987 1518q0 48 36 80t82 32q45 0 75 -32t30 -77q0 -46 -36 -80t-84 -34q-46 0 -74 32t-29 79z" />
    <glyph glyph-name="Yacute" unicode="&#xdd;" 
d="M1339 1352l-573 -772l-92 -580h-258l92 580l-289 772h283l186 -529l369 529h282zM1145 1655l-271 -242h-190l234 242h227z" />
    <glyph glyph-name="Thorn" unicode="&#xde;" horiz-adv-x="1138" 
d="M639 469q150 -1 229 57t97 176t-30 170t-167 52h-180l-70 -451q78 -4 121 -4zM606 248q-57 0 -123 6l-41 -254h-258l215 1352h258l-34 -209h204q133 0 212 -26t130 -85q97 -113 66 -303q-35 -233 -211 -364q-156 -117 -418 -117z" />
    <glyph glyph-name="germandbls" unicode="&#xdf;" horiz-adv-x="1144" 
d="M1110 1221q0 -94 -37 -173q-37 -80 -120 -168t-103 -124t-20 -68q0 -31 51 -80l92 -84q135 -122 135 -250t-91 -209t-245 -81q-74 0 -131 18t-162 76l68 180l49 -27q2 0 20 -8q110 -47 148 -47q74 0 74 76q0 52 -54 108q-131 133 -166 186q-34 52 -34 124t32 134
q34 62 136 178t120 156q18 42 19 100q0 58 -39 104q-39 44 -102 44q-184 0 -226 -292l-168 -1145q-30 -207 -144 -318t-296 -110q-98 0 -252 41l84 207q18 -6 79 -29t100 -23q40 0 81 24t62 60q51 86 75 277l97 694h-193l27 168l194 12l31 195q31 193 153 309t286 115
q164 0 267 -99t103 -251z" />
    <glyph glyph-name="agrave" unicode="&#xe0;" horiz-adv-x="1058" 
d="M653 805q-125 0 -220 -139t-95 -324q0 -137 61 -137t166 131q125 162 150 326l20 133q-49 10 -82 10zM277 -27q-93 0 -146 84t-53 217q0 199 80 370t204 252t306 81q104 0 333 -37l-145 -940h-219l43 270q-61 -86 -99 -127t-96 -84q-115 -86 -208 -86zM782 1059h-164
l-180 336h203z" />
    <glyph glyph-name="aacute" unicode="&#xe1;" horiz-adv-x="1058" 
d="M653 805q-125 0 -220 -139t-95 -324q0 -137 61 -137t166 131q125 162 150 326l20 133q-49 10 -82 10zM277 -27q-93 0 -146 84t-53 217q0 199 80 370t204 252t306 81q104 0 333 -37l-145 -940h-219l43 270q-61 -86 -99 -127t-96 -84q-115 -86 -208 -86zM1014 1395
l-287 -336h-205l246 336h246z" />
    <glyph glyph-name="acircumflex" unicode="&#xe2;" horiz-adv-x="1058" 
d="M653 805q-125 0 -220 -139t-95 -324q0 -137 61 -137t166 131q125 162 150 326l20 133q-49 10 -82 10zM277 -27q-93 0 -146 84t-53 217q0 199 80 370t204 252t306 81q104 0 333 -37l-145 -940h-219l43 270q-61 -86 -99 -127t-96 -84q-115 -86 -208 -86zM1004 1057h-179
l-102 186l-164 -186h-176l281 336h163z" />
    <glyph glyph-name="atilde" unicode="&#xe3;" horiz-adv-x="1058" 
d="M653 805q-125 0 -220 -139t-95 -324q0 -137 61 -137t166 131q125 162 150 326l20 133q-49 10 -82 10zM277 -27q-93 0 -146 84t-53 217q0 199 80 370t204 252t306 81q104 0 333 -37l-145 -940h-219l43 270q-61 -86 -99 -127t-96 -84q-115 -86 -208 -86zM516 1141
q-50 0 -131 -45q-8 -6 -31 -19l-51 117q91 53 151 78t117 24l23 -2q58 -6 161 -73q41 -27 87 -27t79 14q34 14 109 62l51 -109q-146 -116 -282 -114q-73 0 -153 47t-130 47z" />
    <glyph glyph-name="adieresis" unicode="&#xe4;" horiz-adv-x="1058" 
d="M653 805q-125 0 -220 -139t-95 -324q0 -137 61 -137t166 131q125 162 150 326l20 133q-49 10 -82 10zM277 -27q-93 0 -146 84t-53 217q0 199 80 370t204 252t306 81q104 0 333 -37l-145 -940h-219l43 270q-61 -86 -99 -127t-96 -84q-115 -86 -208 -86zM678 1162
q0 -48 -39 -84t-87 -36t-79 35t-31 83t38 84t87 36t80 -35t31 -83zM1006 1162q0 -48 -39 -83t-87 -35t-80 34q-30 34 -30 83t39 84t87 35t79 -35t31 -83z" />
    <glyph glyph-name="aring" unicode="&#xe5;" horiz-adv-x="1058" 
d="M653 805q-125 0 -220 -139t-95 -324q0 -137 61 -137t166 131q125 162 150 326l20 133q-49 10 -82 10zM815 1227q-1 35 -23 59t-57 25q-35 0 -63 -26q-28 -27 -27 -61q0 -34 22 -59q21 -25 57 -25t64 26t27 61zM277 -27q-93 0 -146 84t-53 217q0 199 80 370t204 252
t306 81q104 0 333 -37l-145 -940h-219l43 270q-61 -86 -99 -127t-96 -84q-115 -86 -208 -86zM928 1228q0 -84 -65 -142t-147 -58t-132 56q-52 56 -52 138t64 142q64 59 146 59t134 -56t52 -139z" />
    <glyph glyph-name="ae" unicode="&#xe6;" horiz-adv-x="1476" 
d="M653 805q-125 0 -220 -139t-95 -324q0 -137 61 -137t166 131q125 162 150 326l20 133q-49 10 -82 10zM1221 727q0 88 -82 88q-154 0 -252 -326l321 181q13 32 13 57zM1452 782q0 -152 -170 -241l-412 -219q8 -61 25 -86q55 -86 209 -23q61 25 219 143l94 -145
q-41 -33 -135 -102q-190 -135 -369 -136q-115 0 -190 72q-37 35 -52 74t-22 112q-82 -119 -185 -189q-104 -70 -192 -69q-88 0 -141 84t-53 217q0 299 159 501t394 202q72 0 207 -19l61 -8l-27 -149q29 53 51 78q90 102 259 102q270 0 270 -199z" />
    <glyph glyph-name="ccedilla" unicode="&#xe7;" horiz-adv-x="856" 
d="M596 795q-115 0 -193 -126t-77 -313q0 -76 24 -118t66 -43q72 0 297 161l94 -145l-64 -45q-98 -70 -146 -98t-128 -56l-86 -131q143 -6 143 -133q0 -90 -72 -158t-161 -68q-88 0 -219 56l59 109q80 -39 131 -39t78 26t27 66q-1 39 -19 51t-76 12h-92l135 181h-34
q-96 0 -151 85q-54 85 -54 236q0 289 152 483t380 193q70 -1 126 -13t149 -53l-101 -188q-123 68 -188 68z" />
    <glyph glyph-name="egrave" unicode="&#xe8;" horiz-adv-x="909" 
d="M649 727q0 88 -82 88q-152 0 -252 -326l322 181q12 32 12 57zM885 782q0 -152 -170 -241l-414 -219q10 -61 27 -86q55 -86 209 -23q61 25 219 143l94 -145q-41 -33 -122 -91t-120 -79q-125 -68 -258 -68q-272 0 -272 338q0 297 149 484q150 186 387 186q271 0 271 -199z
M735 1059h-166l-178 336h203z" />
    <glyph glyph-name="eacute" unicode="&#xe9;" horiz-adv-x="909" 
d="M649 727q0 88 -82 88q-152 0 -252 -326l322 181q12 32 12 57zM885 782q0 -152 -170 -241l-414 -219q10 -61 27 -86q55 -86 209 -23q61 25 219 143l94 -145q-41 -33 -122 -91t-120 -79q-125 -68 -258 -68q-272 0 -272 338q0 297 149 484q150 186 387 186q271 0 271 -199z
M963 1395l-285 -336h-205l246 336h244z" />
    <glyph glyph-name="ecircumflex" unicode="&#xea;" horiz-adv-x="909" 
d="M649 727q0 88 -82 88q-152 0 -252 -326l322 181q12 32 12 57zM885 782q0 -152 -170 -241l-414 -219q10 -61 27 -86q55 -86 209 -23q61 25 219 143l94 -145q-41 -33 -122 -91t-120 -79q-125 -68 -258 -68q-272 0 -272 338q0 297 149 484q150 186 387 186q271 0 271 -199z
M936 1057h-178l-103 186l-161 -186h-179l283 336h162z" />
    <glyph glyph-name="edieresis" unicode="&#xeb;" horiz-adv-x="909" 
d="M649 727q0 88 -82 88q-152 0 -252 -326l322 181q12 32 12 57zM885 782q0 -152 -170 -241l-414 -219q10 -61 27 -86q55 -86 209 -23q61 25 219 143l94 -145q-41 -33 -122 -91t-120 -79q-125 -68 -258 -68q-272 0 -272 338q0 297 149 484q150 186 387 186q271 0 271 -199z
M501 1280q49 0 79 -35t30 -83t-38 -84t-87 -36t-79 35t-29 83q0 48 38 84t86 36zM830 1280q50 0 80 -35t30 -83t-39 -83t-87 -35t-79 34t-31 83t38 84t88 35z" />
    <glyph glyph-name="igrave" unicode="&#xec;" horiz-adv-x="526" 
d="M479 967l-149 -967h-244l145 940zM502 1059h-164l-178 336h202z" />
    <glyph glyph-name="iacute" unicode="&#xed;" horiz-adv-x="526" 
d="M479 967l-149 -967h-244l145 940zM725 1395l-285 -336h-204l245 336h244z" />
    <glyph glyph-name="icircumflex" unicode="&#xee;" horiz-adv-x="526" 
d="M479 967l-149 -967h-244l145 940zM694 1057h-176l-104 186l-162 -186h-178l282 336h162z" />
    <glyph glyph-name="idieresis" unicode="&#xef;" horiz-adv-x="526" 
d="M479 967l-149 -967h-244l145 940zM236 1280q50 0 80 -35t30 -83t-39 -84t-87 -36t-79 35t-31 83t38 84t88 36zM674 1162q0 -48 -38 -83t-87 -35t-80 34t-31 83t39 84t87 35t79 -35t31 -83z" />
    <glyph glyph-name="eth" unicode="&#xf0;" horiz-adv-x="1114" 
d="M526 166q104 0 193 101q88 101 115 300q-18 10 -63 38t-96 43q-52 16 -122 16t-124 -58t-73 -162q-18 -122 24 -200t146 -78zM502 -45q-216 0 -322 140t-74 344t145 320q114 116 275 115q90 0 162 -22t96 -40t58 -40q0 123 -6 172t-33 92l-197 -102l-63 151l147 78
q-70 43 -219 43q-63 0 -139 -8l30 205q117 8 211 8q220 0 345 -127l184 94l63 -151l-151 -80q109 -219 55 -572q-45 -285 -198 -453t-369 -167z" />
    <glyph glyph-name="ntilde" unicode="&#xf1;" horiz-adv-x="1105" 
d="M1026 780q0 -20 -4 -53l-113 -727h-243l94 608q6 39 6 91t-41 53q-76 0 -164 -98q-87 -98 -111 -142q-57 -110 -83 -274l-37 -238h-244l145 940l248 27l-53 -267q186 279 412 279q98 1 143 -47t45 -152zM276 1200q175 103 230 103q88 0 122 -18q72 -39 107 -62t80 -23
t79 14t110 62l51 -109q-146 -116 -283 -114q-76 0 -154 47t-135 47q-56 0 -155 -64z" />
    <glyph glyph-name="ograve" unicode="&#xf2;" horiz-adv-x="1021" 
d="M707 570q0 104 -32 162t-81 58t-100 -41q-51 -42 -91 -114q-74 -135 -73 -277q0 -90 34 -148t81 -58t92 36q78 66 124 172t46 210zM961 584q0 -241 -150 -430q-80 -96 -170 -138t-217 -43q-168 -1 -257 99t-89 286q0 272 150 447q151 174 388 174q168 0 256 -100t89 -295
zM743 1059h-163l-179 336h203z" />
    <glyph glyph-name="oacute" unicode="&#xf3;" horiz-adv-x="1021" 
d="M707 570q0 104 -32 162t-81 58t-100 -41q-51 -42 -91 -114q-74 -135 -73 -277q0 -90 34 -148t81 -58t92 36q78 66 124 172t46 210zM961 584q0 -241 -150 -430q-80 -96 -170 -138t-217 -43q-168 -1 -257 99t-89 286q0 272 150 447q151 174 388 174q168 0 256 -100t89 -295
zM973 1395l-285 -336h-205l246 336h244z" />
    <glyph glyph-name="ocircumflex" unicode="&#xf4;" horiz-adv-x="1021" 
d="M707 570q0 104 -32 162t-81 58t-100 -41q-51 -42 -91 -114q-74 -135 -73 -277q0 -90 34 -148t81 -58t92 36q78 66 124 172t46 210zM961 584q0 -241 -150 -430q-80 -96 -170 -138t-217 -43q-168 -1 -257 99t-89 286q0 272 150 447q151 174 388 174q168 0 256 -100t89 -295
zM938 1057h-178l-105 186l-161 -186h-179l283 336h164z" />
    <glyph glyph-name="otilde" unicode="&#xf5;" horiz-adv-x="1021" 
d="M707 570q0 104 -32 162t-81 58t-100 -41q-51 -42 -91 -114q-74 -135 -73 -277q0 -90 34 -148t81 -58t92 36q78 66 124 172t46 210zM961 584q0 -241 -150 -430q-80 -96 -170 -138t-217 -43q-168 -1 -257 99t-89 286q0 272 150 447q151 174 388 174q168 0 256 -100t89 -295
zM723 1044q-77 0 -155 48t-134 47q-56 0 -155 -64l-52 117q91 53 151 78t118 24l22 -2q59 -6 164 -75q39 -25 84 -25t79 14t109 62l52 -109q-144 -115 -283 -115z" />
    <glyph glyph-name="odieresis" unicode="&#xf6;" horiz-adv-x="1021" 
d="M707 570q0 104 -32 162t-81 58t-100 -41q-51 -42 -91 -114q-74 -135 -73 -277q0 -90 34 -148t81 -58t92 36q78 66 124 172t46 210zM961 584q0 -241 -150 -430q-80 -96 -170 -138t-217 -43q-168 -1 -257 99t-89 286q0 272 150 447q151 174 388 174q168 0 256 -100t89 -295
zM592 1162q0 -48 -39 -84t-87 -36t-79 35t-31 83t38 84t87 36t80 -35t31 -83zM930 1162q0 -48 -39 -83t-87 -35t-79 34t-31 83t38 84t87 35t80 -35t31 -83z" />
    <glyph glyph-name="divide" unicode="&#xf7;" 
d="M702 98q0 -57 -40 -97t-96 -40q-58 0 -98 40t-40 97q0 58 40 98t97 40t98 -40q39 -41 39 -98zM1075 401h-1024v168h1024v-168zM705 874q0 -57 -40 -97q-39 -40 -97 -40t-98 40t-40 97q0 58 40 98t97 40t98 -40q40 -41 40 -98z" />
    <glyph glyph-name="oslash" unicode="&#xf8;" horiz-adv-x="1021" 
d="M608 803h-12l-6 2q-39 0 -95 -49q-173 -151 -171 -416q0 -54 4 -72t24 -51zM725 592q0 90 -27 162l-266 -615h8q41 0 97 45q55 45 100 119q88 137 88 289zM961 586q0 -258 -151 -436t-370 -179q-25 0 -80 6l-63 -143l-98 31l61 141q-88 35 -135 126t-47 224
q0 272 150 448q151 175 386 175q37 0 68 -6l61 143l103 -33l-62 -139q80 -27 128 -126t49 -232z" />
    <glyph glyph-name="ugrave" unicode="&#xf9;" horiz-adv-x="1099" 
d="M111 164q0 41 4 61l110 715l248 27l-96 -623q-8 -55 -8 -78q0 -66 43 -65q74 0 167 101t132 187t59 226l33 225l250 27l-150 -967h-231l45 283q-43 -77 -69 -115t-93 -96q-117 -98 -256 -99q-188 0 -188 191zM774 1059h-164l-178 336h203z" />
    <glyph glyph-name="uacute" unicode="&#xfa;" horiz-adv-x="1099" 
d="M111 164q0 41 4 61l110 715l248 27l-96 -623q-8 -55 -8 -78q0 -66 43 -65q74 0 167 101t132 187t59 226l33 225l250 27l-150 -967h-231l45 283q-43 -77 -69 -115t-93 -96q-117 -98 -256 -99q-188 0 -188 191zM1026 1395l-285 -336h-204l245 336h244z" />
    <glyph glyph-name="ucircumflex" unicode="&#xfb;" horiz-adv-x="1099" 
d="M111 164q0 41 4 61l110 715l248 27l-96 -623q-8 -55 -8 -78q0 -66 43 -65q74 0 167 101t132 187t59 226l33 225l250 27l-150 -967h-231l45 283q-43 -77 -69 -115t-93 -96q-117 -98 -256 -99q-188 0 -188 191zM961 1057h-179l-102 186l-164 -186h-176l283 336h161z" />
    <glyph glyph-name="udieresis" unicode="&#xfc;" horiz-adv-x="1099" 
d="M111 164q0 41 4 61l110 715l248 27l-96 -623q-8 -55 -8 -78q0 -66 43 -65q74 0 167 101t132 187t59 226l33 225l250 27l-150 -967h-231l45 283q-43 -77 -69 -115t-93 -96q-117 -98 -256 -99q-188 0 -188 191zM496 1280q50 0 80 -35t30 -83t-39 -84t-87 -36t-79 35t-31 83
t39 84q38 36 87 36zM975 1162q0 -48 -38 -83t-87 -35t-79 34t-30 83t38 84t86 35t79 -35t31 -83z" />
    <glyph glyph-name="yacute" unicode="&#xfd;" horiz-adv-x="899" 
d="M645 799q0 63 -20 127l252 41q16 -91 16 -192t-40 -213t-84 -182q-44 -69 -143 -187t-118 -193l-115 -477h-243l110 450q16 65 16 103t-6 57l-209 807l248 27l144 -662q192 255 192 494zM862 1395l-284 -336h-205l245 336h244z" />
    <glyph glyph-name="thorn" unicode="&#xfe;" horiz-adv-x="1077" 
d="M772 662q0 87 -53 88q-63 0 -164 -101q-154 -154 -180 -332l-19 -118q62 -51 112 -51t109 42q110 81 166 284q29 101 29 188zM1026 700q0 -297 -156 -514t-368 -217q-96 0 -174 43l-78 -489h-244l301 1958l248 26l-125 -798q72 119 186 199t210 79q96 0 148 -76t52 -211z
" />
    <glyph glyph-name="ydieresis" unicode="&#xff;" horiz-adv-x="899" 
d="M645 799q0 63 -20 127l252 41q16 -91 16 -192t-40 -213t-84 -182q-44 -69 -143 -187t-118 -193l-115 -477h-243l110 450q16 65 16 103t-6 57l-209 807l248 27l144 -662q192 255 192 494zM457 1165q0 -49 -39 -84t-87 -35t-79 34t-31 83t38 84t87 35t80 -34t31 -83z
M811 1165q0 -49 -39 -84t-87 -35t-79 34t-31 83t38 84q37 35 87 35t80 -34t31 -83z" />
    <glyph glyph-name="dotlessi" unicode="&#x131;" horiz-adv-x="526" 
d="M479 967l-149 -967h-244l145 940z" />
    <glyph glyph-name="Lslash" unicode="&#x141;" horiz-adv-x="1013" 
d="M1030 219l-35 -219h-811l90 565l-188 -100l-63 151l282 152l94 584h258l-69 -434l184 96l66 -152l-283 -149l-78 -494h553z" />
    <glyph glyph-name="lslash" unicode="&#x142;" horiz-adv-x="489" 
d="M641 848l-215 -127l-113 -721h-243l88 561l-82 -47l-88 152l207 122l108 693l248 26l-88 -561l90 53z" />
    <glyph glyph-name="OE" unicode="&#x152;" horiz-adv-x="1880" 
d="M901 1163q-215 0 -371 -175t-155 -417q0 -172 101 -278t269 -107q68 0 109 14t104 54l134 852q-104 57 -191 57zM723 -27q-283 0 -455 162t-172 428q0 345 239 579t591 234q104 0 204 -24h807l-34 -219h-537l-53 -334h432l-33 -219h-434l-57 -361h555l-27 -219h-811
q-133 -27 -215 -27z" />
    <glyph glyph-name="oe" unicode="&#x153;" horiz-adv-x="1536" 
d="M707 570q0 104 -32 162t-81 58t-100 -41q-51 -42 -91 -114q-74 -135 -73 -277q0 -90 34 -148t81 -58t92 36q78 66 124 172t46 210zM1274 723q0 88 -82 88q-70 0 -135 -77t-117 -249l322 181q12 32 12 57zM928 317q18 -135 108 -135q52 0 120 26t226 146l93 -145
q-279 -240 -504 -240q-176 0 -205 160q-18 -20 -51 -53q-109 -102 -284 -102t-264 98q-89 100 -89 286q0 272 151 447q152 174 387 174q84 -1 142 -21t85 -48q26 -28 46 -85q33 39 55 58q111 94 299 94q266 0 266 -199q0 -152 -170 -241z" />
    <glyph glyph-name="Scaron" unicode="&#x160;" horiz-adv-x="1093" 
d="M760 1126q-90 0 -150 -33q-59 -35 -67 -85q-9 -50 15 -80t89 -70q285 -166 364 -259t53 -258t-167 -266t-367 -102q-164 0 -314 66q-50 23 -155 78l146 237q74 -44 117 -66q129 -67 233 -67q213 1 237 145q12 70 -98 136l-190 119q-164 102 -217 183q-53 82 -35 202
t108 209q161 159 443 159q125 0 219 -26t211 -86l-139 -232q-203 96 -336 96zM1167 1677l-268 -239h-162l-190 239h178l111 -133l155 133h176z" />
    <glyph glyph-name="scaron" unicode="&#x161;" horiz-adv-x="741" 
d="M290 174q134 0 134 88q0 42 -70 105q-40 36 -89 78q-50 42 -105 106q-53 70 -54 151q0 133 94 206t250 73t293 -55l-69 -199q-117 61 -203 61q-125 0 -125 -71q0 -23 12 -41q20 -35 142 -133q106 -91 145 -149t39 -134q0 -131 -90 -209t-238 -78t-344 54l68 198
q142 -51 210 -51zM819 1413l-282 -336h-129l-181 336h144l121 -219l188 219h139z" />
    <glyph glyph-name="Ydieresis" unicode="&#x178;" 
d="M1280 1352l-578 -779l-90 -573h-262l92 590l-284 762h276l187 -525l364 525h295zM598 1525q0 -46 -37 -80t-82 -34t-75 33t-30 79t37 80q36 33 82 33q45 0 75 -32t30 -79zM1038 1523q0 -46 -37 -80t-83 -34t-74 32t-29 79q0 47 36 81q36 33 82 33t76 -32q29 -33 29 -79z
" />
    <glyph glyph-name="Zcaron" unicode="&#x17d;" horiz-adv-x="1218" 
d="M1370 1352l-27 -168l-874 -965h721l-35 -219h-1081l26 168l887 965h-721l35 219h1069zM1208 1677l-268 -239h-162l-190 239h178l111 -133l155 133h176z" />
    <glyph glyph-name="zcaron" unicode="&#x17e;" horiz-adv-x="901" 
d="M891 952l-21 -131l-495 -622h450l-30 -199h-772l20 133l496 621h-414l31 198h735zM881 1413l-283 -336h-129l-180 336h143l121 -219l188 219h140z" />
    <glyph glyph-name="florin" unicode="&#x192;" horiz-adv-x="1179" 
d="M-293 -385l160 205q82 -113 147 -113q31 0 71 24t65 56q55 74 108 272l205 754h-164l37 139h162l30 113q62 227 198 329t281 103q145 0 277 -119l-160 -204q-82 112 -148 112t-127 -74q-62 -74 -95 -186l-21 -74h209l-37 -139h-211l-231 -883q-51 -194 -180 -314
t-289 -120q-159 0 -287 119z" />
    <glyph glyph-name="circumflex" unicode="&#x2c6;" horiz-adv-x="692" 
d="M1059 1057h-178l-105 186l-162 -186h-178l283 336h164z" />
    <glyph glyph-name="caron" unicode="&#x2c7;" horiz-adv-x="692" 
d="M616 1352l-327 -338h-88l-125 338h98l119 -181l231 181h92z" />
    <glyph glyph-name="breve" unicode="&#x2d8;" horiz-adv-x="720" 
d="M453 1249q0 45 6 103h90q8 -188 178 -189q176 0 301 189h90q-51 -94 -87 -144t-91 -94q-131 -111 -264 -110q-96 0 -160 69q-63 70 -63 176z" />
    <glyph glyph-name="dotaccent" unicode="&#x2d9;" horiz-adv-x="479" 
d="M627 1278q43 0 67 -30t23 -73q0 -44 -37 -76t-79 -32q-43 0 -67 31q-24 32 -24 74t37 74t80 32z" />
    <glyph glyph-name="ring" unicode="&#x2da;" horiz-adv-x="497" 
d="M520 1178q0 36 -22 60t-58 24q-34 0 -62 -26t-28 -60t22 -60q22 -24 58 -24t63 25q27 26 27 61zM633 1179q0 -83 -65 -141q-64 -58 -146 -59q-82 0 -133 56q-51 57 -51 139t63 141t145 59t135 -56q52 -56 52 -139z" />
    <glyph glyph-name="ogonek" unicode="&#x2db;" horiz-adv-x="516" 
d="M258 -393q-90 0 -90 94t86 258l20 39h70q-48 -122 -61 -191l67 -169q-45 -31 -92 -31z" />
    <glyph glyph-name="tilde" unicode="&#x2dc;" horiz-adv-x="929" 
d="M829 1044q-77 0 -155 48t-132 47q-54 0 -157 -64l-51 117q90 53 150 78t118 24l23 -2q57 -6 166 -76q36 -24 81 -24t79 14t110 62l51 -109q-144 -115 -283 -115z" />
    <glyph glyph-name="hungarumlaut" unicode="&#x2dd;" horiz-adv-x="784" 
d="M569 1352l-430 -330h-108l348 330h190zM850 1352l-430 -330h-109l348 330h191z" />
    <glyph glyph-name="endash" unicode="&#x2013;" horiz-adv-x="1024" 
d="M1049 561l-27 -170h-1024l27 170h1024z" />
    <glyph glyph-name="emdash" unicode="&#x2014;" horiz-adv-x="2048" 
d="M2073 561l-27 -170h-2048l27 170h2048z" />
    <glyph glyph-name="quoteleft" unicode="&#x2018;" horiz-adv-x="514" 
d="M303 725q-135 0 -135 127q0 92 68 229t180 271h145q-113 -175 -145 -308l69 -272q-102 -47 -182 -47z" />
    <glyph glyph-name="quoteright" unicode="&#x2019;" horiz-adv-x="514" 
d="M415 1395q75 -1 107 -31t33 -109q0 -79 -68 -217t-180 -270h-147q43 64 86 150t59 155l-69 275q104 47 179 47z" />
    <glyph glyph-name="quotesinglbase" unicode="&#x201a;" horiz-adv-x="514" 
d="M234 287q78 -1 110 -31t33 -108q0 -78 -69 -216t-179 -270h-147q108 163 145 305l-70 275q99 45 177 45z" />
    <glyph glyph-name="quotedblleft" unicode="&#x201c;" horiz-adv-x="894" 
d="M303 725q-135 0 -135 127q0 92 68 229t180 271h145q-113 -175 -145 -308l69 -272q-102 -47 -182 -47zM687 725q-75 0 -107 31q-32 32 -33 110q0 78 67 215q68 137 181 271h145q-108 -166 -143 -308l67 -272q-102 -47 -177 -47z" />
    <glyph glyph-name="quotedblright" unicode="&#x201d;" horiz-adv-x="894" 
d="M415 1395q75 -1 107 -31t33 -109q0 -79 -68 -217t-180 -270h-147q43 64 86 150t59 155l-69 275q104 47 179 47zM794 1395q76 -1 108 -31t32 -109t-68 -217t-180 -270h-145q114 182 143 305l-68 275q102 47 178 47z" />
    <glyph glyph-name="quotedblbase" unicode="&#x201e;" horiz-adv-x="894" 
d="M234 287q78 -1 110 -31t33 -108q0 -78 -69 -216t-179 -270h-147q108 163 145 305l-70 275q99 45 177 45zM613 287q77 -1 110 -31t33 -108t-69 -216t-179 -270h-146q120 186 144 305l-70 275q100 45 177 45z" />
    <glyph glyph-name="dagger" unicode="&#x2020;" horiz-adv-x="1173" 
d="M700 727l-12 -303l-166 -932h-192l131 932l82 303h157zM520 979l-31 -182l-327 -35l39 252zM1135 1014l-41 -252l-318 35l29 182zM846 1352l-98 -291h-144l-8 291h250z" />
    <glyph glyph-name="daggerdbl" unicode="&#x2021;" horiz-adv-x="1173" 
d="M563 -508h-250l99 291h145zM383 47l-29 -184l-329 -33l41 252zM997 82l-39 -252l-319 33l29 184zM713 727l-15 -305l-82 -307h-159l14 307l84 305h158zM530 979l-28 -182l-330 -35l41 252zM1145 1014l-39 -252l-320 35l31 182zM856 1352l-96 -291h-146l-6 291h248z" />
    <glyph glyph-name="bullet" unicode="&#x2022;" horiz-adv-x="720" 
d="M39 473q0 135 105 233q104 98 240 97t222 -95t86 -229t-106 -233t-258 -99q-119 -1 -204 95t-85 231z" />
    <glyph glyph-name="ellipsis" unicode="&#x2026;" horiz-adv-x="1536" 
d="M348 141q0 -69 -53 -117t-121 -48t-109 48q-42 48 -42 116t52 116q51 49 119 49t111 -48t43 -116zM722 305q68 0 112 -47t43 -115q1 -69 -53 -117t-122 -48t-109 48q-42 48 -42 116t52 115q51 48 119 48zM1238 305q68 0 112 -47t43 -115q1 -69 -53 -117t-120 -48t-110 48
q-43 48 -43 116t52 115q51 48 119 48z" />
    <glyph glyph-name="perthousand" unicode="&#x2030;" horiz-adv-x="2527" 
d="M629 1014q-1 84 -59 142t-142 58t-142 -58t-58 -142t58 -142t142 -59q84 1 142 59t59 142zM1112 332q0 -84 58 -142t142 -59t143 59q58 60 58 143t-58 141t-142 58q-85 0 -143 -58t-58 -142zM2097 131q81 -1 141 59t60 143t-58 141t-143 58q-84 0 -142 -58
q-59 -58 -59 -141t60 -143t141 -59zM786 1014q0 -150 -104 -254t-252 -104t-254 104t-106 254t105 255t254 105t253 -105t104 -255zM1536 1403l-1157 -1493h-195l1159 1493h193zM1671 334q0 -148 -105 -254t-254 -106t-253 104q-105 106 -105 255t104 253t254 104
q148 0 254 -104t105 -252zM2097 690q151 0 255 -104t104 -252t-104 -254t-255 -106q-150 0 -254 104q-104 106 -104 255t104 253t254 104z" />
    <glyph glyph-name="guilsinglleft" unicode="&#x2039;" horiz-adv-x="657" 
d="M627 862l-39 -244l-232 -155l183 -154l-39 -246l-439 400z" />
    <glyph glyph-name="guilsinglright" unicode="&#x203a;" horiz-adv-x="657" 
d="M614 463l-565 -400l39 246l229 154l-180 155l39 244z" />
    <glyph glyph-name="fraction" unicode="&#x2044;" horiz-adv-x="1740" 
d="M1536 1403l-1157 -1493h-195l1159 1493h193z" />
    <glyph glyph-name="Euro" unicode="&#x20ac;" horiz-adv-x="1085" 
d="M716 197q90 0 245 90l55 -215q-66 -33 -86 -41q-137 -59 -303 -59t-275 100q-109 102 -119 280h-159l16 99l148 20q8 66 16 98h-145l16 99l170 24q74 172 217 272t324 99q88 0 160 -18t161 -84l-147 -201q-49 45 -87 62t-94 18q-158 0 -258 -148h355l-21 -123h-391
q-12 -45 -18 -94h395l-21 -123h-364q38 -155 210 -155z" />
    <glyph glyph-name="trademark" unicode="&#x2122;" horiz-adv-x="1767" 
d="M874 1352l-24 -154h-180l-80 -504h-207l80 504h-180l24 154h567zM1137 1147h-13l-71 -453h-181l105 658h297l65 -400l4 -51h13l22 51l205 400h307l-102 -658h-207l70 439h-13l-28 -91l-209 -348h-180l-84 363v90z" />
    <glyph glyph-name="minus" unicode="&#x2212;" 
d="M1163 559l-26 -168h-1024l26 168h1024z" />
    <glyph glyph-name="fi" unicode="&#xfb01;" horiz-adv-x="1101" 
d="M732 1315q-93 1 -143 -59t-71 -199l-16 -105h395l150 15l-148 -967h-246l119 768h-301l-127 -819q-27 -176 -106 -289q-48 -72 -138 -116t-166 -44t-145 14q-68 14 -147 62l94 193q112 -59 184 -59t125 68q53 69 70 183l123 807h-193l27 172l198 12l29 181q17 109 77 197
t143 132t235 44t344 -72l-68 -191q-82 31 -94 35q-111 37 -204 37z" />
    <glyph glyph-name="fl" unicode="&#xfb02;" horiz-adv-x="1093" 
d="M-66 -500q-76 0 -145 14q-68 14 -147 62l94 193q112 -59 184 -59t125 68q53 69 70 183l123 807h-193l27 172l198 12l29 181q17 109 77 199t142 131q82 42 200 42t222 -18l199 20l-240 -1507h-246l201 1266l4 34q-68 14 -119 15q-98 1 -148 -57t-73 -201l-16 -105h211
l-29 -184h-213l-127 -819q-27 -176 -106 -289q-48 -72 -138 -116t-166 -44z" />
    </font>
</defs>
</svg>
